<svg width="184" height="78" viewBox="0 0 184 78" fill="none" xmlns="http://www.w3.org/2000/svg">
<rect x="9.5" y="0.5" width="163" height="77" fill="white" stroke="black"/>
<path d="M35.757 33V32.34C36.157 32.34 36.4636 32.2333 36.677 32.02C36.8903 31.8067 37.0636 31.5133 37.197 31.14C37.3436 30.7667 37.5103 30.3333 37.697 29.84L41.817 18.62H42.297L46.757 30C46.8636 30.28 46.9836 30.64 47.117 31.08C47.2503 31.52 47.3036 31.8933 47.277 32.2C47.5036 32.1867 47.7303 32.1733 47.957 32.16C48.1836 32.1467 48.4103 32.1333 48.637 32.12V33H44.057V32.34C44.5636 32.3267 44.897 32.2133 45.057 32C45.217 31.7867 45.277 31.5333 45.237 31.24C45.197 30.9467 45.1303 30.68 45.037 30.44L44.337 28.56L39.137 28.68L38.437 30.82C38.3436 31.14 38.257 31.3933 38.177 31.58C38.1103 31.7667 38.0303 31.9733 37.937 32.2C38.2036 32.1867 38.4636 32.1733 38.717 32.16C38.9836 32.1467 39.2436 32.1333 39.497 32.12V33H35.757ZM39.437 27.82H44.057L42.637 24C42.4903 23.5867 42.337 23.18 42.177 22.78C42.0303 22.3667 41.8836 21.9533 41.737 21.54H41.697C41.5636 21.9133 41.4236 22.2867 41.277 22.66C41.1436 23.0333 41.0036 23.4133 40.857 23.8L39.437 27.82ZM49.4965 32.34C50.0032 32.3133 50.3498 32.2 50.5365 32C50.7232 31.7867 50.8232 31.5 50.8365 31.14C50.8632 30.7667 50.8765 30.3467 50.8765 29.88V21.24C50.8765 20.68 50.8965 20.2 50.9365 19.8C50.6965 19.8133 50.4565 19.8267 50.2165 19.84C49.9765 19.8533 49.7365 19.8667 49.4965 19.88V19L54.2165 18.98C55.8298 18.9667 57.2432 19.2133 58.4565 19.72C59.6832 20.2267 60.6432 21 61.3365 22.04C62.0298 23.08 62.3765 24.4067 62.3765 26.02C62.3765 26.94 62.2165 27.82 61.8965 28.66C61.5765 29.5 61.0965 30.2467 60.4565 30.9C59.8165 31.54 59.0165 32.0533 58.0565 32.44C57.1098 32.8133 56.0098 33 54.7565 33H49.4965V32.34ZM52.6165 30.64C52.6165 31.3333 52.5965 31.8533 52.5565 32.2C53.0898 32.2267 53.5565 32.24 53.9565 32.24C54.3698 32.24 54.6165 32.24 54.6965 32.24C55.8432 32.24 56.8432 31.9667 57.6965 31.42C58.5632 30.86 59.2298 30.1067 59.6965 29.16C60.1765 28.2 60.4165 27.1267 60.4165 25.94C60.4165 24.6733 60.1832 23.58 59.7165 22.66C59.2632 21.7267 58.5632 21.0067 57.6165 20.5C56.6698 19.98 55.4632 19.72 53.9965 19.72C53.5032 19.72 53.1565 19.82 52.9565 20.02C52.7698 20.22 52.6632 20.5 52.6365 20.86C52.6232 21.22 52.6165 21.64 52.6165 22.12V30.64ZM64.2035 32.34C64.7102 32.3133 65.0568 32.2 65.2435 32C65.4302 31.7867 65.5302 31.5 65.5435 31.14C65.5702 30.7667 65.5835 30.3467 65.5835 29.88V21.24C65.5835 20.68 65.6035 20.2 65.6435 19.8C65.4035 19.8133 65.1635 19.8267 64.9235 19.84C64.6835 19.8533 64.4435 19.8667 64.2035 19.88V19L68.9235 18.98C70.5368 18.9667 71.9502 19.2133 73.1635 19.72C74.3902 20.2267 75.3502 21 76.0435 22.04C76.7368 23.08 77.0835 24.4067 77.0835 26.02C77.0835 26.94 76.9235 27.82 76.6035 28.66C76.2835 29.5 75.8035 30.2467 75.1635 30.9C74.5235 31.54 73.7235 32.0533 72.7635 32.44C71.8168 32.8133 70.7168 33 69.4635 33H64.2035V32.34ZM67.3235 30.64C67.3235 31.3333 67.3035 31.8533 67.2635 32.2C67.7968 32.2267 68.2635 32.24 68.6635 32.24C69.0768 32.24 69.3235 32.24 69.4035 32.24C70.5502 32.24 71.5502 31.9667 72.4035 31.42C73.2702 30.86 73.9368 30.1067 74.4035 29.16C74.8835 28.2 75.1235 27.1267 75.1235 25.94C75.1235 24.6733 74.8902 23.58 74.4235 22.66C73.9702 21.7267 73.2702 21.0067 72.3235 20.5C71.3768 19.98 70.1702 19.72 68.7035 19.72C68.2102 19.72 67.8635 19.82 67.6635 20.02C67.4768 20.22 67.3702 20.5 67.3435 20.86C67.3302 21.22 67.3235 21.64 67.3235 22.12V30.64ZM94.8398 23.22C94.8264 22.4333 94.7464 21.78 94.5998 21.26C94.4531 20.74 94.1931 20.3533 93.8198 20.1C93.4598 19.8333 92.9331 19.7067 92.2398 19.72H90.5398L90.5198 30.62C90.5198 31.3267 90.4998 31.8533 90.4598 32.2C90.7398 32.1867 91.0131 32.1733 91.2798 32.16C91.5598 32.1467 91.8398 32.1333 92.1198 32.12V33H87.4198V32.34C87.9264 32.3133 88.2664 32.1933 88.4398 31.98C88.6264 31.7667 88.7264 31.48 88.7398 31.12C88.7664 30.7467 88.7798 30.3333 88.7798 29.88L88.7998 19.74L86.7398 19.76C85.8998 19.76 85.3064 20.04 84.9598 20.6C84.6131 21.16 84.4398 22.0333 84.4398 23.22H83.6998L83.8198 19H95.4798L95.5998 23.22H94.8398ZM104.093 33.32C102.826 33.32 101.739 33.1067 100.833 32.68C99.9261 32.2533 99.1861 31.6867 98.6127 30.98C98.0527 30.26 97.6394 29.4667 97.3727 28.6C97.1061 27.7333 96.9727 26.8667 96.9727 26C96.9727 25.16 97.1127 24.3133 97.3927 23.46C97.6727 22.5933 98.0994 21.8 98.6727 21.08C99.2594 20.36 99.9861 19.78 100.853 19.34C101.733 18.9 102.759 18.68 103.933 18.68C105.159 18.68 106.219 18.9 107.113 19.34C108.006 19.78 108.739 20.3667 109.313 21.1C109.899 21.82 110.333 22.6067 110.613 23.46C110.906 24.3133 111.053 25.16 111.053 26C111.053 26.8267 110.913 27.6733 110.633 28.54C110.353 29.3933 109.919 30.1867 109.333 30.92C108.759 31.64 108.039 32.22 107.173 32.66C106.306 33.1 105.279 33.32 104.093 33.32ZM104.133 32.5C104.959 32.5 105.679 32.3267 106.293 31.98C106.906 31.62 107.413 31.1467 107.813 30.56C108.226 29.96 108.533 29.3 108.733 28.58C108.946 27.8467 109.053 27.1133 109.053 26.38C109.053 25.5533 108.939 24.7333 108.713 23.92C108.486 23.1067 108.153 22.3667 107.713 21.7C107.273 21.0333 106.726 20.5 106.073 20.1C105.433 19.6867 104.699 19.48 103.873 19.48C103.046 19.48 102.319 19.66 101.693 20.02C101.079 20.38 100.566 20.86 100.153 21.46C99.7527 22.0467 99.4461 22.7067 99.2327 23.44C99.0327 24.16 98.9327 24.8933 98.9327 25.64C98.9327 26.3733 99.0327 27.14 99.2327 27.94C99.4461 28.74 99.7661 29.4867 100.193 30.18C100.619 30.8733 101.159 31.4333 101.813 31.86C102.466 32.2867 103.239 32.5 104.133 32.5ZM125.826 33.2C125.239 31.8667 124.646 30.54 124.046 29.22C123.446 27.8867 122.859 26.54 122.286 25.18C122.006 24.54 121.732 23.8933 121.466 23.24C121.212 22.5867 120.959 21.9267 120.706 21.26C120.706 21.4067 120.699 21.5533 120.686 21.7C120.686 21.8467 120.686 21.9933 120.686 22.14C120.672 22.62 120.652 23.2 120.626 23.88C120.612 24.5467 120.592 25.2667 120.566 26.04C120.539 26.8 120.519 27.5667 120.506 28.34C120.492 29.1 120.479 29.82 120.466 30.5C120.452 30.7933 120.439 31.0867 120.426 31.38C120.426 31.6733 120.412 31.9467 120.386 32.2C120.639 32.1867 120.886 32.1733 121.126 32.16C121.379 32.1467 121.632 32.1333 121.886 32.12V33H118.066V32.34C118.479 32.3267 118.779 32.24 118.966 32.08C119.166 31.9067 119.292 31.68 119.346 31.4C119.399 31.12 119.432 30.82 119.446 30.5L119.826 21.38C119.839 21.1133 119.846 20.8467 119.846 20.58C119.859 20.3133 119.872 20.0533 119.886 19.8C119.646 19.8133 119.406 19.8267 119.166 19.84C118.926 19.84 118.686 19.8467 118.446 19.86V19H121.506L124.946 26.94C125.199 27.54 125.452 28.14 125.706 28.74C125.972 29.3267 126.239 29.9333 126.506 30.56H126.546C126.692 30.2 126.866 29.7733 127.066 29.28C127.266 28.7733 127.432 28.34 127.566 27.98C128.152 26.5133 128.759 25.0467 129.386 23.58C130.026 22.1 130.652 20.5733 131.266 19H134.226V19.66C133.732 19.6467 133.366 19.8 133.126 20.12C132.886 20.44 132.792 21.0133 132.846 21.84L133.366 30.94C133.392 31.1667 133.406 31.3867 133.406 31.6C133.406 31.8133 133.406 32.0067 133.406 32.18C133.646 32.1667 133.886 32.16 134.126 32.16C134.379 32.1467 134.626 32.1333 134.866 32.12V33H130.386V32.34C131.012 32.3133 131.399 32.1 131.546 31.7C131.692 31.3 131.746 30.72 131.706 29.96L131.306 23.36C131.292 23.04 131.272 22.72 131.246 22.4C131.232 22.08 131.212 21.76 131.186 21.44C131.146 21.5333 131.099 21.6333 131.046 21.74C131.006 21.8467 130.966 21.96 130.926 22.08L126.426 33.2H125.826ZM139.747 33V32.34C140.254 32.3133 140.594 32.1933 140.767 31.98C140.954 31.7667 141.054 31.48 141.067 31.12C141.094 30.7467 141.107 30.3333 141.107 29.88L141.127 27.6L137.647 22.1C137.314 21.5667 137.061 21.12 136.887 20.76C136.727 20.4 136.621 20.0933 136.567 19.84C136.354 19.8533 136.147 19.86 135.947 19.86C135.747 19.86 135.541 19.8667 135.327 19.88V19H140.487V19.66C139.874 19.66 139.447 19.7533 139.207 19.94C138.967 20.1267 138.874 20.3867 138.927 20.72C138.994 21.04 139.161 21.4133 139.427 21.84L141.027 24.36C141.214 24.6533 141.407 24.9533 141.607 25.26C141.807 25.5533 142.027 25.8667 142.267 26.2H142.307C142.454 25.9067 142.601 25.6267 142.747 25.36C142.894 25.08 143.034 24.8133 143.167 24.56L144.867 21.34C144.974 21.1533 145.114 20.9067 145.287 20.6C145.461 20.2933 145.641 20.0333 145.827 19.82C145.574 19.8333 145.314 19.8467 145.047 19.86C144.781 19.86 144.514 19.8667 144.247 19.88V19H148.327V19.66C147.674 19.7 147.134 19.9267 146.707 20.34C146.294 20.7533 145.854 21.3867 145.387 22.24C144.934 23.0933 144.494 23.9133 144.067 24.7C143.654 25.4867 143.254 26.2533 142.867 27C142.867 27.24 142.861 27.56 142.847 27.96C142.847 28.36 142.847 28.7667 142.847 29.18C142.847 29.58 142.847 29.92 142.847 30.2C142.847 30.48 142.847 30.62 142.847 30.62C142.847 31.3267 142.827 31.8533 142.787 32.2C143.067 32.1867 143.341 32.1733 143.607 32.16C143.887 32.1467 144.167 32.1333 144.447 32.12V33H139.747ZM55.1898 58.34C55.6965 58.3133 56.0432 58.2 56.2298 58C56.4165 57.7867 56.5165 57.5 56.5298 57.14C56.5565 56.7667 56.5698 56.3467 56.5698 55.88V47.24C56.5698 46.68 56.5898 46.2 56.6298 45.8C56.3898 45.8133 56.1498 45.8267 55.9098 45.84C55.6698 45.8533 55.4298 45.8667 55.1898 45.88V45C55.8965 44.9867 56.6232 44.98 57.3698 44.98C58.1165 44.9667 58.8765 44.96 59.6498 44.96C61.5832 44.96 63.0565 45.2867 64.0698 45.94C65.0965 46.5933 65.6365 47.56 65.6898 48.84C65.7165 49.36 65.6365 49.9067 65.4498 50.48C65.2765 51.04 64.9432 51.5733 64.4498 52.08C63.9698 52.5733 63.2898 52.9733 62.4098 53.28C61.5298 53.5867 60.4032 53.74 59.0298 53.74C58.9765 53.74 58.8765 53.74 58.7298 53.74C58.5832 53.74 58.4432 53.7333 58.3098 53.72V56.62C58.3098 57.3267 58.2898 57.8533 58.2498 58.2C58.5565 58.1733 58.8632 58.1533 59.1698 58.14C59.4765 58.1267 59.7832 58.1133 60.0898 58.1V59H55.1898V58.34ZM58.3098 52.9C58.5632 52.9267 58.7765 52.9467 58.9498 52.96C59.1365 52.96 59.3565 52.96 59.6098 52.96C60.3698 52.96 61.0632 52.8133 61.6898 52.52C62.3165 52.2133 62.8165 51.78 63.1898 51.22C63.5632 50.66 63.7498 49.9933 63.7498 49.22C63.7498 48.38 63.5698 47.7067 63.2098 47.2C62.8632 46.68 62.3765 46.3067 61.7498 46.08C61.1365 45.8533 60.4232 45.74 59.6098 45.74C59.1432 45.74 58.8165 45.84 58.6298 46.04C58.4565 46.24 58.3565 46.52 58.3298 46.88C58.3165 47.2267 58.3098 47.64 58.3098 48.12V52.9ZM67.2211 59V58.34C67.7278 58.3133 68.0744 58.2 68.2611 58C68.4478 57.7867 68.5478 57.5 68.5611 57.14C68.5878 56.7667 68.6011 56.3467 68.6011 55.88V47.24C68.6011 46.68 68.6211 46.2 68.6611 45.8C68.4211 45.8133 68.1811 45.8267 67.9411 45.84C67.7011 45.8533 67.4611 45.8667 67.2211 45.88V45H71.7211V45.66C71.2278 45.6733 70.8811 45.7867 70.6811 46C70.4944 46.2133 70.3878 46.5 70.3611 46.86C70.3478 47.22 70.3411 47.64 70.3411 48.12V56.7C70.3411 57.3933 70.3211 57.9133 70.2811 58.26L74.0211 58.2C74.8611 58.1867 75.4944 57.92 75.9211 57.4C76.3611 56.88 76.5811 56.0333 76.5811 54.86H77.2611L77.1411 59H67.2211ZM77.8956 59V58.34C78.2956 58.34 78.6023 58.2333 78.8156 58.02C79.029 57.8067 79.2023 57.5133 79.3356 57.14C79.4823 56.7667 79.649 56.3333 79.8356 55.84L83.9556 44.62H84.4356L88.8956 56C89.0023 56.28 89.1223 56.64 89.2556 57.08C89.389 57.52 89.4423 57.8933 89.4156 58.2C89.6423 58.1867 89.869 58.1733 90.0956 58.16C90.3223 58.1467 90.549 58.1333 90.7756 58.12V59H86.1956V58.34C86.7023 58.3267 87.0356 58.2133 87.1956 58C87.3556 57.7867 87.4156 57.5333 87.3756 57.24C87.3356 56.9467 87.269 56.68 87.1756 56.44L86.4756 54.56L81.2756 54.68L80.5756 56.82C80.4823 57.14 80.3956 57.3933 80.3156 57.58C80.249 57.7667 80.169 57.9733 80.0756 58.2C80.3423 58.1867 80.6023 58.1733 80.8556 58.16C81.1223 58.1467 81.3823 58.1333 81.6356 58.12V59H77.8956ZM81.5756 53.82H86.1956L84.7756 50C84.629 49.5867 84.4756 49.18 84.3156 48.78C84.169 48.3667 84.0223 47.9533 83.8756 47.54H83.8356C83.7023 47.9133 83.5623 48.2867 83.4156 48.66C83.2823 49.0333 83.1423 49.4133 82.9956 49.8L81.5756 53.82ZM102.575 59.32L94.5952 48.6C94.4752 48.44 94.3552 48.2867 94.2352 48.14C94.1285 47.98 94.0152 47.82 93.8952 47.66H93.8752L93.9352 56.22C93.9352 56.5533 93.9352 56.8867 93.9352 57.22C93.9352 57.5533 93.9218 57.88 93.8952 58.2C94.1352 58.1867 94.3752 58.1733 94.6152 58.16C94.8552 58.1467 95.0952 58.1333 95.3352 58.12V59H91.6752V58.34C92.0885 58.34 92.3818 58.2533 92.5552 58.08C92.7418 57.8933 92.8618 57.68 92.9152 57.44C92.9685 57.1867 92.9952 56.96 92.9952 56.76L93.0152 47.14V45.8C92.8018 45.8133 92.5818 45.8267 92.3552 45.84C92.1285 45.8533 91.9018 45.8667 91.6752 45.88V45H94.0552L101.555 55.04C101.728 55.2667 101.895 55.4933 102.055 55.72C102.228 55.9467 102.402 56.1733 102.575 56.4H102.595L102.615 47.24C102.615 46.68 102.635 46.2 102.675 45.8C102.435 45.8133 102.195 45.8267 101.955 45.84C101.715 45.8533 101.475 45.8667 101.235 45.88V45H104.915V45.66C104.422 45.6733 104.082 45.7867 103.895 46C103.708 46.2133 103.608 46.5 103.595 46.86C103.582 47.22 103.575 47.64 103.575 48.12L103.535 59.32H102.575ZM117.35 49.22C117.336 48.4333 117.256 47.78 117.11 47.26C116.963 46.74 116.703 46.3533 116.33 46.1C115.97 45.8333 115.443 45.7067 114.75 45.72H113.05L113.03 56.62C113.03 57.3267 113.01 57.8533 112.97 58.2C113.25 58.1867 113.523 58.1733 113.79 58.16C114.07 58.1467 114.35 58.1333 114.63 58.12V59H109.93V58.34C110.436 58.3133 110.776 58.1933 110.95 57.98C111.136 57.7667 111.236 57.48 111.25 57.12C111.276 56.7467 111.29 56.3333 111.29 55.88L111.31 45.74L109.25 45.76C108.41 45.76 107.816 46.04 107.47 46.6C107.123 47.16 106.95 48.0333 106.95 49.22H106.21L106.33 45H117.99L118.11 49.22H117.35ZM127.523 49.24C127.483 48.6 127.329 47.9933 127.063 47.42C126.796 46.8467 126.409 46.38 125.903 46.02C125.396 45.66 124.749 45.48 123.963 45.48C123.136 45.48 122.503 45.7133 122.063 46.18C121.623 46.6467 121.403 47.1933 121.403 47.82C121.403 48.38 121.563 48.8533 121.883 49.24C122.203 49.6133 122.616 49.9467 123.123 50.24C123.643 50.52 124.189 50.7933 124.763 51.06C125.269 51.2867 125.776 51.5333 126.283 51.8C126.789 52.0533 127.249 52.3467 127.663 52.68C128.076 53.0133 128.403 53.4133 128.643 53.88C128.896 54.3333 129.023 54.88 129.023 55.52C129.023 56.6267 128.616 57.54 127.803 58.26C126.989 58.9667 125.836 59.32 124.343 59.32C123.743 59.32 123.123 59.2333 122.483 59.06C121.843 58.8867 121.276 58.6333 120.783 58.3L120.883 59.16H119.843L119.723 54.9H120.503C120.569 56.0733 120.976 56.9667 121.723 57.58C122.469 58.18 123.369 58.48 124.423 58.48C124.943 58.48 125.423 58.3867 125.863 58.2C126.303 58 126.649 57.7133 126.903 57.34C127.169 56.9667 127.303 56.5133 127.303 55.98C127.303 55.38 127.143 54.88 126.823 54.48C126.503 54.08 126.089 53.7333 125.583 53.44C125.076 53.1467 124.536 52.8667 123.963 52.6C123.456 52.3733 122.956 52.1333 122.463 51.88C121.969 51.6267 121.516 51.34 121.103 51.02C120.703 50.6867 120.376 50.2933 120.123 49.84C119.883 49.3867 119.763 48.84 119.763 48.2C119.763 47.8533 119.823 47.48 119.943 47.08C120.063 46.68 120.269 46.3 120.563 45.94C120.869 45.5667 121.283 45.2667 121.803 45.04C122.336 44.8 123.009 44.68 123.823 44.68C124.329 44.68 124.896 44.7533 125.523 44.9C126.163 45.0333 126.756 45.3 127.303 45.7L127.223 44.84H128.243V49.24H127.523Z" fill="black"/>
</svg>
