<svg width="77" height="77" viewBox="0 0 77 77" fill="none" xmlns="http://www.w3.org/2000/svg">
<path d="M29.7613 57.3838L22.6562 48.8288L12.6875 61.625H52.5625L39.73 44.5513L29.7613 57.3838Z" fill="black" fill-opacity="0.98"/>
<path opacity="0.3" d="M52.5625 61.625H12.6875L22.6562 48.8288L29.7613 57.3837L39.73 44.5512L52.5625 61.625ZM54.375 21.75H43.5V18.125H7.25V68.875H58V32.625H54.375V21.75Z" fill="black" fill-opacity="0.98"/>
<path d="M65.25 10.875V0H58V10.875H47.125V18.125H58V28.9637H65.25V18.125H76.125V10.875H65.25ZM58 68.875H7.25V18.125H43.5V10.875H7.25C3.2625 10.875 0 14.1375 0 18.125V68.875C0 72.8625 3.2625 76.125 7.25 76.125H58C61.9875 76.125 65.25 72.8625 65.25 68.875V32.625H58V68.875Z" fill="black" fill-opacity="0.98"/>
</svg>
