<svg width="59" height="34" viewBox="0 0 59 34" fill="none" xmlns="http://www.w3.org/2000/svg">
<rect x="0.5" y="0.5" width="58" height="33" fill="white" stroke="black"/>
<path d="M16.0448 15.46C15.9114 14.2067 15.4714 13.2333 14.7248 12.54C13.9914 11.8467 13.0448 11.5 11.8848 11.5C10.9381 11.5 10.0781 11.7667 9.30477 12.3C8.53143 12.82 7.91143 13.56 7.44477 14.52C6.99143 15.48 6.76477 16.6133 6.76477 17.92C6.76477 19.1733 7.00477 20.28 7.48477 21.24C7.96477 22.2 8.61143 22.9467 9.42477 23.48C10.2381 24.0133 11.1381 24.28 12.1248 24.28C12.9914 24.28 13.8448 24.0867 14.6848 23.7C15.5248 23.3 16.2114 22.7267 16.7448 21.98L17.2648 22.4C16.6914 23.1867 16.0714 23.7933 15.4048 24.22C14.7381 24.6467 14.0714 24.9333 13.4048 25.08C12.7514 25.24 12.1514 25.32 11.6048 25.32C10.6048 25.32 9.68477 25.14 8.84477 24.78C8.0181 24.42 7.2981 23.92 6.68477 23.28C6.08477 22.6267 5.6181 21.8733 5.28477 21.02C4.96477 20.1533 4.80477 19.22 4.80477 18.22C4.80477 17.2733 4.94477 16.3533 5.22477 15.46C5.5181 14.5667 5.95143 13.76 6.52477 13.04C7.0981 12.32 7.8181 11.7467 8.68477 11.32C9.56477 10.8933 10.5848 10.68 11.7448 10.68C13.2114 10.68 14.5581 11.0867 15.7848 11.9L15.6848 10.82H16.7648V15.46H16.0448ZM18.5491 24.4C18.9625 24.4 19.2491 24.3 19.4091 24.1C19.5691 23.8867 19.6625 23.6 19.6891 23.24C19.7158 22.8667 19.7291 22.44 19.7291 21.96V12.5C19.7291 12.2867 19.7291 12.0867 19.7291 11.9C19.7425 11.7 19.7625 11.4667 19.7891 11.2C19.5491 11.2133 19.3091 11.2267 19.0691 11.24C18.8425 11.2533 18.6091 11.2667 18.3691 11.28V10.44C18.9558 10.44 19.4091 10.4133 19.7291 10.36C20.0625 10.3067 20.3091 10.24 20.4691 10.16C20.6425 10.08 20.7758 9.99333 20.8691 9.9H21.4491L21.4691 22.88C21.4691 23.1467 21.4625 23.3867 21.4491 23.6C21.4358 23.8 21.4091 24.0133 21.3691 24.24C21.5825 24.2267 21.7891 24.22 21.9891 24.22C22.2025 24.2067 22.4158 24.1933 22.6291 24.18V25H18.5491V24.4ZM29.1584 25.32C28.225 25.32 27.3784 25.1067 26.6184 24.68C25.8584 24.24 25.2517 23.64 24.7984 22.88C24.3584 22.1067 24.1384 21.2267 24.1384 20.24C24.1384 19.1867 24.3584 18.24 24.7984 17.4C25.2384 16.56 25.8384 15.9 26.5984 15.42C27.3584 14.9267 28.2117 14.68 29.1584 14.68C30.0917 14.68 30.9384 14.9067 31.6984 15.36C32.4584 15.8 33.065 16.4 33.5184 17.16C33.9717 17.92 34.1984 18.7867 34.1984 19.76C34.1984 20.7867 33.9717 21.7267 33.5184 22.58C33.0784 23.42 32.4784 24.0867 31.7184 24.58C30.9584 25.0733 30.105 25.32 29.1584 25.32ZM29.3184 24.52C30.025 24.52 30.585 24.32 30.9984 23.92C31.4117 23.52 31.705 23 31.8784 22.36C32.065 21.72 32.1584 21.0467 32.1584 20.34C32.1584 19.74 32.0984 19.1533 31.9784 18.58C31.8717 17.9933 31.6984 17.4667 31.4584 17C31.2184 16.52 30.905 16.14 30.5184 15.86C30.145 15.58 29.6917 15.44 29.1584 15.44C28.465 15.44 27.8984 15.64 27.4584 16.04C27.0184 16.44 26.6917 16.96 26.4784 17.6C26.2784 18.24 26.1784 18.9267 26.1784 19.66C26.1784 20.4867 26.2917 21.2733 26.5184 22.02C26.745 22.7533 27.0917 23.3533 27.5584 23.82C28.025 24.2867 28.6117 24.52 29.3184 24.52ZM39.9976 25.32C39.3309 25.32 38.7376 25.2267 38.2176 25.04C37.6976 24.8667 37.2709 24.6667 36.9376 24.44L37.0176 25.14H36.1776L36.0576 21.7H36.6776C36.7042 22.2467 36.8576 22.74 37.1376 23.18C37.4176 23.6067 37.7776 23.94 38.2176 24.18C38.6576 24.42 39.1309 24.54 39.6376 24.54C39.9842 24.54 40.3242 24.4867 40.6576 24.38C40.9909 24.26 41.2709 24.0867 41.4976 23.86C41.7242 23.62 41.8376 23.32 41.8376 22.96C41.8376 22.5867 41.7242 22.28 41.4976 22.04C41.2842 21.7867 40.9976 21.5667 40.6376 21.38C40.2776 21.1933 39.8909 21.02 39.4776 20.86C38.9442 20.6467 38.4109 20.42 37.8776 20.18C37.3576 19.9267 36.9242 19.6 36.5776 19.2C36.2309 18.7867 36.0576 18.2467 36.0576 17.58C36.0576 17.3 36.1109 16.9933 36.2176 16.66C36.3242 16.3267 36.5042 16.0133 36.7576 15.72C37.0109 15.4133 37.3576 15.1667 37.7976 14.98C38.2376 14.78 38.7976 14.68 39.4776 14.68C39.8376 14.68 40.2376 14.74 40.6776 14.86C41.1176 14.98 41.5442 15.2067 41.9576 15.54L41.9176 14.78H42.7576V18.28H42.1176C42.0909 17.8133 41.9842 17.3667 41.7976 16.94C41.6109 16.5 41.3376 16.14 40.9776 15.86C40.6176 15.5667 40.1509 15.42 39.5776 15.42C38.9642 15.42 38.4842 15.5733 38.1376 15.88C37.7909 16.1867 37.6176 16.54 37.6176 16.94C37.6176 17.3533 37.7442 17.7 37.9976 17.98C38.2642 18.2467 38.6042 18.48 39.0176 18.68C39.4309 18.88 39.8709 19.0733 40.3376 19.26C40.8442 19.4733 41.3376 19.7067 41.8176 19.96C42.2976 20.2133 42.6909 20.5333 42.9976 20.92C43.3042 21.2933 43.4576 21.78 43.4576 22.38C43.4576 23.0467 43.2842 23.6 42.9376 24.04C42.6042 24.48 42.1709 24.8 41.6376 25C41.1176 25.2133 40.5709 25.32 39.9976 25.32ZM49.9954 25.32C49.0754 25.32 48.2421 25.1067 47.4954 24.68C46.7621 24.24 46.1821 23.6267 45.7554 22.84C45.3287 22.04 45.1154 21.1 45.1154 20.02C45.1154 19.0867 45.3221 18.2133 45.7354 17.4C46.1621 16.5867 46.7554 15.9333 47.5154 15.44C48.2754 14.9333 49.1554 14.68 50.1554 14.68C50.9021 14.68 51.5821 14.84 52.1954 15.16C52.8087 15.48 53.2954 15.9667 53.6554 16.62C54.0287 17.2733 54.2154 18.1 54.2154 19.1L47.1754 19.22C47.1621 20.7533 47.4154 21.9867 47.9354 22.92C48.4554 23.84 49.3021 24.3 50.4754 24.3C50.8887 24.3 51.3087 24.2267 51.7354 24.08C52.1754 23.9333 52.5821 23.7333 52.9554 23.48C53.3287 23.2267 53.6287 22.9467 53.8554 22.64L54.3354 23.04C53.9754 23.6 53.5421 24.0467 53.0354 24.38C52.5287 24.7133 52.0087 24.9533 51.4754 25.1C50.9421 25.2467 50.4487 25.32 49.9954 25.32ZM47.2354 18.38H52.3354C52.3354 17.9 52.2621 17.44 52.1154 17C51.9821 16.5467 51.7554 16.18 51.4354 15.9C51.1154 15.6067 50.6954 15.46 50.1754 15.46C49.4021 15.46 48.7554 15.6933 48.2354 16.16C47.7287 16.6133 47.3954 17.3533 47.2354 18.38Z" fill="black"/>
</svg>
