<svg width="158" height="158" viewBox="0 0 158 158" fill="none" xmlns="http://www.w3.org/2000/svg">
<circle cx="79" cy="79" r="78.5" fill="#C4C4C4" stroke="black"/>
<rect x="30" y="47" width="98" height="63" stroke="black" stroke-width="2"/>
<path d="M56.3155 74V73.34C56.7155 73.34 57.0222 73.2333 57.2355 73.02C57.4489 72.8067 57.6222 72.5133 57.7555 72.14C57.9022 71.7667 58.0689 71.3333 58.2555 70.84L62.3755 59.62H62.8555L67.3155 71C67.4222 71.28 67.5422 71.64 67.6755 72.08C67.8089 72.52 67.8622 72.8933 67.8355 73.2C68.0622 73.1867 68.2889 73.1733 68.5155 73.16C68.7422 73.1467 68.9689 73.1333 69.1955 73.12V74H64.6155V73.34C65.1222 73.3267 65.4555 73.2133 65.6155 73C65.7755 72.7867 65.8355 72.5333 65.7955 72.24C65.7555 71.9467 65.6889 71.68 65.5955 71.44L64.8955 69.56L59.6955 69.68L58.9955 71.82C58.9022 72.14 58.8155 72.3933 58.7355 72.58C58.6689 72.7667 58.5889 72.9733 58.4955 73.2C58.7622 73.1867 59.0222 73.1733 59.2755 73.16C59.5422 73.1467 59.8022 73.1333 60.0555 73.12V74H56.3155ZM59.9955 68.82H64.6155L63.1955 65C63.0489 64.5867 62.8955 64.18 62.7355 63.78C62.5889 63.3667 62.4422 62.9533 62.2955 62.54H62.2555C62.1222 62.9133 61.9822 63.2867 61.8355 63.66C61.7022 64.0333 61.5622 64.4133 61.4155 64.8L59.9955 68.82ZM70.0551 73.34C70.5617 73.3133 70.9084 73.2 71.0951 73C71.2817 72.7867 71.3817 72.5 71.3951 72.14C71.4217 71.7667 71.4351 71.3467 71.4351 70.88V62.24C71.4351 61.68 71.4551 61.2 71.4951 60.8C71.2551 60.8133 71.0151 60.8267 70.7751 60.84C70.5351 60.8533 70.2951 60.8667 70.0551 60.88V60L74.7751 59.98C76.3884 59.9667 77.8017 60.2133 79.0151 60.72C80.2417 61.2267 81.2017 62 81.8951 63.04C82.5884 64.08 82.9351 65.4067 82.9351 67.02C82.9351 67.94 82.7751 68.82 82.4551 69.66C82.1351 70.5 81.6551 71.2467 81.0151 71.9C80.3751 72.54 79.5751 73.0533 78.6151 73.44C77.6684 73.8133 76.5684 74 75.3151 74H70.0551V73.34ZM73.1751 71.64C73.1751 72.3333 73.1551 72.8533 73.1151 73.2C73.6484 73.2267 74.1151 73.24 74.5151 73.24C74.9284 73.24 75.1751 73.24 75.2551 73.24C76.4017 73.24 77.4017 72.9667 78.2551 72.42C79.1217 71.86 79.7884 71.1067 80.2551 70.16C80.7351 69.2 80.9751 68.1267 80.9751 66.94C80.9751 65.6733 80.7417 64.58 80.2751 63.66C79.8217 62.7267 79.1217 62.0067 78.1751 61.5C77.2284 60.98 76.0217 60.72 74.5551 60.72C74.0617 60.72 73.7151 60.82 73.5151 61.02C73.3284 61.22 73.2217 61.5 73.1951 61.86C73.1817 62.22 73.1751 62.64 73.1751 63.12V71.64ZM84.7621 73.34C85.2688 73.3133 85.6154 73.2 85.8021 73C85.9888 72.7867 86.0888 72.5 86.1021 72.14C86.1288 71.7667 86.1421 71.3467 86.1421 70.88V62.24C86.1421 61.68 86.1621 61.2 86.2021 60.8C85.9621 60.8133 85.7221 60.8267 85.4821 60.84C85.2421 60.8533 85.0021 60.8667 84.7621 60.88V60L89.4821 59.98C91.0954 59.9667 92.5088 60.2133 93.7221 60.72C94.9488 61.2267 95.9088 62 96.6021 63.04C97.2954 64.08 97.6421 65.4067 97.6421 67.02C97.6421 67.94 97.4821 68.82 97.1621 69.66C96.8421 70.5 96.3621 71.2467 95.7221 71.9C95.0821 72.54 94.2821 73.0533 93.3221 73.44C92.3754 73.8133 91.2754 74 90.0221 74H84.7621V73.34ZM87.8821 71.64C87.8821 72.3333 87.8621 72.8533 87.8221 73.2C88.3554 73.2267 88.8221 73.24 89.2221 73.24C89.6354 73.24 89.8821 73.24 89.9621 73.24C91.1088 73.24 92.1088 72.9667 92.9621 72.42C93.8288 71.86 94.4954 71.1067 94.9621 70.16C95.4421 69.2 95.6821 68.1267 95.6821 66.94C95.6821 65.6733 95.4488 64.58 94.9821 63.66C94.5288 62.7267 93.8288 62.0067 92.8821 61.5C91.9354 60.98 90.7288 60.72 89.2621 60.72C88.7688 60.72 88.4221 60.82 88.2221 61.02C88.0354 61.22 87.9288 61.5 87.9021 61.86C87.8888 62.22 87.8821 62.64 87.8821 63.12V71.64ZM42.7113 99.34C43.218 99.3133 43.5647 99.2 43.7513 99C43.938 98.7867 44.038 98.5 44.0513 98.14C44.078 97.7667 44.0913 97.3467 44.0913 96.88V88.24C44.0913 87.68 44.1113 87.2 44.1513 86.8C43.9113 86.8133 43.6713 86.8267 43.4313 86.84C43.1913 86.8533 42.9513 86.8667 42.7113 86.88V86C43.418 85.9867 44.1447 85.98 44.8913 85.98C45.638 85.9667 46.398 85.96 47.1713 85.96C49.1047 85.96 50.578 86.2867 51.5913 86.94C52.618 87.5933 53.158 88.56 53.2113 89.84C53.238 90.36 53.158 90.9067 52.9713 91.48C52.798 92.04 52.4647 92.5733 51.9713 93.08C51.4913 93.5733 50.8113 93.9733 49.9313 94.28C49.0513 94.5867 47.9247 94.74 46.5513 94.74C46.498 94.74 46.398 94.74 46.2513 94.74C46.1047 94.74 45.9647 94.7333 45.8313 94.72V97.62C45.8313 98.3267 45.8113 98.8533 45.7713 99.2C46.078 99.1733 46.3847 99.1533 46.6913 99.14C46.998 99.1267 47.3047 99.1133 47.6113 99.1V100H42.7113V99.34ZM45.8313 93.9C46.0847 93.9267 46.298 93.9467 46.4713 93.96C46.658 93.96 46.878 93.96 47.1313 93.96C47.8913 93.96 48.5847 93.8133 49.2113 93.52C49.838 93.2133 50.338 92.78 50.7113 92.22C51.0847 91.66 51.2713 90.9933 51.2713 90.22C51.2713 89.38 51.0913 88.7067 50.7313 88.2C50.3847 87.68 49.898 87.3067 49.2713 87.08C48.658 86.8533 47.9447 86.74 47.1313 86.74C46.6647 86.74 46.338 86.84 46.1513 87.04C45.978 87.24 45.878 87.52 45.8513 87.88C45.838 88.2267 45.8313 88.64 45.8313 89.12V93.9ZM54.7426 100V99.34C55.2492 99.3133 55.5959 99.2 55.7826 99C55.9692 98.7867 56.0692 98.5 56.0826 98.14C56.1092 97.7667 56.1226 97.3467 56.1226 96.88V88.24C56.1226 87.68 56.1426 87.2 56.1826 86.8C55.9426 86.8133 55.7026 86.8267 55.4626 86.84C55.2226 86.8533 54.9826 86.8667 54.7426 86.88V86H59.2426V86.66C58.7492 86.6733 58.4026 86.7867 58.2026 87C58.0159 87.2133 57.9092 87.5 57.8826 87.86C57.8692 88.22 57.8626 88.64 57.8626 89.12V92.44H65.0226V88.24C65.0226 87.68 65.0426 87.2 65.0826 86.8C64.8426 86.8133 64.6026 86.8267 64.3626 86.84C64.1226 86.8533 63.8826 86.8667 63.6426 86.88V86H68.1426V86.66C67.6492 86.6733 67.3026 86.7867 67.1026 87C66.9159 87.2133 66.8092 87.5 66.7826 87.86C66.7692 88.22 66.7626 88.64 66.7626 89.12V97.62C66.7626 98.3267 66.7426 98.8533 66.7026 99.2C66.9426 99.1867 67.1826 99.1733 67.4226 99.16C67.6626 99.1467 67.9026 99.1333 68.1426 99.12V100H63.6426V99.34C64.1492 99.3133 64.4959 99.2 64.6826 99C64.8692 98.7867 64.9692 98.5 64.9826 98.14C65.0092 97.7667 65.0226 97.3467 65.0226 96.88V93.24L57.8626 93.32V97.62C57.8626 98.3267 57.8426 98.8533 57.8026 99.2C58.0426 99.1867 58.2826 99.1733 58.5226 99.16C58.7626 99.1467 59.0026 99.1333 59.2426 99.12V100H54.7426ZM77.1123 100.32C75.8456 100.32 74.7589 100.107 73.8523 99.68C72.9456 99.2533 72.2056 98.6867 71.6323 97.98C71.0723 97.26 70.6589 96.4667 70.3923 95.6C70.1256 94.7333 69.9923 93.8667 69.9923 93C69.9923 92.16 70.1323 91.3133 70.4123 90.46C70.6923 89.5933 71.1189 88.8 71.6923 88.08C72.2789 87.36 73.0056 86.78 73.8723 86.34C74.7523 85.9 75.7789 85.68 76.9523 85.68C78.1789 85.68 79.2389 85.9 80.1323 86.34C81.0256 86.78 81.7589 87.3667 82.3323 88.1C82.9189 88.82 83.3523 89.6067 83.6323 90.46C83.9256 91.3133 84.0723 92.16 84.0723 93C84.0723 93.8267 83.9323 94.6733 83.6523 95.54C83.3723 96.3933 82.9389 97.1867 82.3523 97.92C81.7789 98.64 81.0589 99.22 80.1923 99.66C79.3256 100.1 78.2989 100.32 77.1123 100.32ZM77.1523 99.5C77.9789 99.5 78.6989 99.3267 79.3123 98.98C79.9256 98.62 80.4323 98.1467 80.8323 97.56C81.2456 96.96 81.5523 96.3 81.7523 95.58C81.9656 94.8467 82.0723 94.1133 82.0723 93.38C82.0723 92.5533 81.9589 91.7333 81.7323 90.92C81.5056 90.1067 81.1723 89.3667 80.7323 88.7C80.2923 88.0333 79.7456 87.5 79.0923 87.1C78.4523 86.6867 77.7189 86.48 76.8923 86.48C76.0656 86.48 75.3389 86.66 74.7123 87.02C74.0989 87.38 73.5856 87.86 73.1723 88.46C72.7723 89.0467 72.4656 89.7067 72.2523 90.44C72.0523 91.16 71.9523 91.8933 71.9523 92.64C71.9523 93.3733 72.0523 94.14 72.2523 94.94C72.4656 95.74 72.7856 96.4867 73.2123 97.18C73.6389 97.8733 74.1789 98.4333 74.8323 98.86C75.4856 99.2867 76.2589 99.5 77.1523 99.5ZM96.2968 90.22C96.2835 89.4333 96.2035 88.78 96.0568 88.26C95.9101 87.74 95.6501 87.3533 95.2768 87.1C94.9168 86.8333 94.3901 86.7067 93.6968 86.72H91.9968L91.9768 97.62C91.9768 98.3267 91.9568 98.8533 91.9168 99.2C92.1968 99.1867 92.4701 99.1733 92.7368 99.16C93.0168 99.1467 93.2968 99.1333 93.5768 99.12V100H88.8768V99.34C89.3835 99.3133 89.7235 99.1933 89.8968 98.98C90.0835 98.7667 90.1835 98.48 90.1968 98.12C90.2235 97.7467 90.2368 97.3333 90.2368 96.88L90.2568 86.74L88.1968 86.76C87.3568 86.76 86.7635 87.04 86.4168 87.6C86.0701 88.16 85.8968 89.0333 85.8968 90.22H85.1568L85.2768 86H96.9368L97.0568 90.22H96.2968ZM105.55 100.32C104.283 100.32 103.196 100.107 102.29 99.68C101.383 99.2533 100.643 98.6867 100.07 97.98C99.5098 97.26 99.0964 96.4667 98.8298 95.6C98.5631 94.7333 98.4298 93.8667 98.4298 93C98.4298 92.16 98.5698 91.3133 98.8498 90.46C99.1298 89.5933 99.5564 88.8 100.13 88.08C100.716 87.36 101.443 86.78 102.31 86.34C103.19 85.9 104.216 85.68 105.39 85.68C106.616 85.68 107.676 85.9 108.57 86.34C109.463 86.78 110.196 87.3667 110.77 88.1C111.356 88.82 111.79 89.6067 112.07 90.46C112.363 91.3133 112.51 92.16 112.51 93C112.51 93.8267 112.37 94.6733 112.09 95.54C111.81 96.3933 111.376 97.1867 110.79 97.92C110.216 98.64 109.496 99.22 108.63 99.66C107.763 100.1 106.736 100.32 105.55 100.32ZM105.59 99.5C106.416 99.5 107.136 99.3267 107.75 98.98C108.363 98.62 108.87 98.1467 109.27 97.56C109.683 96.96 109.99 96.3 110.19 95.58C110.403 94.8467 110.51 94.1133 110.51 93.38C110.51 92.5533 110.396 91.7333 110.17 90.92C109.943 90.1067 109.61 89.3667 109.17 88.7C108.73 88.0333 108.183 87.5 107.53 87.1C106.89 86.6867 106.156 86.48 105.33 86.48C104.503 86.48 103.776 86.66 103.15 87.02C102.536 87.38 102.023 87.86 101.61 88.46C101.21 89.0467 100.903 89.7067 100.69 90.44C100.49 91.16 100.39 91.8933 100.39 92.64C100.39 93.3733 100.49 94.14 100.69 94.94C100.903 95.74 101.223 96.4867 101.65 97.18C102.076 97.8733 102.616 98.4333 103.27 98.86C103.923 99.2867 104.696 99.5 105.59 99.5Z" fill="black"/>
</svg>
