<svg width="59" height="34" viewBox="0 0 59 34" fill="none" xmlns="http://www.w3.org/2000/svg">
<rect x="0.5" y="0.5" width="58" height="33" fill="white" stroke="black"/>
<path d="M19.9538 22.5867C18.6871 22.5867 17.6005 22.3733 16.6938 21.9467C15.7871 21.52 15.0471 20.9533 14.4738 20.2467C13.9138 19.5267 13.5005 18.7333 13.2338 17.8667C12.9671 17 12.8338 16.1333 12.8338 15.2667C12.8338 14.4267 12.9738 13.58 13.2538 12.7267C13.5338 11.86 13.9605 11.0667 14.5338 10.3467C15.1205 9.62666 15.8471 9.04666 16.7138 8.60666C17.5938 8.16666 18.6205 7.94666 19.7938 7.94666C21.0205 7.94666 22.0805 8.16666 22.9738 8.60666C23.8671 9.04666 24.6005 9.63333 25.1738 10.3667C25.7605 11.0867 26.1938 11.8733 26.4738 12.7267C26.7671 13.58 26.9138 14.4267 26.9138 15.2667C26.9138 16.0933 26.7738 16.94 26.4938 17.8067C26.2138 18.66 25.7805 19.4533 25.1938 20.1867C24.6205 20.9067 23.9005 21.4867 23.0338 21.9267C22.1671 22.3667 21.1405 22.5867 19.9538 22.5867ZM19.9938 21.7667C20.8205 21.7667 21.5405 21.5933 22.1538 21.2467C22.7671 20.8867 23.2738 20.4133 23.6738 19.8267C24.0871 19.2267 24.3938 18.5667 24.5938 17.8467C24.8071 17.1133 24.9138 16.38 24.9138 15.6467C24.9138 14.82 24.8005 14 24.5738 13.1867C24.3471 12.3733 24.0138 11.6333 23.5738 10.9667C23.1338 10.3 22.5871 9.76666 21.9338 9.36666C21.2938 8.95333 20.5605 8.74666 19.7338 8.74666C18.9071 8.74666 18.1805 8.92666 17.5538 9.28666C16.9405 9.64666 16.4271 10.1267 16.0138 10.7267C15.6138 11.3133 15.3071 11.9733 15.0938 12.7067C14.8938 13.4267 14.7938 14.16 14.7938 14.9067C14.7938 15.64 14.8938 16.4067 15.0938 17.2067C15.3071 18.0067 15.6271 18.7533 16.0538 19.4467C16.4805 20.14 17.0205 20.7 17.6738 21.1267C18.3271 21.5533 19.1005 21.7667 19.9938 21.7667ZM28.7169 22.2667V21.6067C29.2236 21.58 29.5703 21.4667 29.7569 21.2667C29.9436 21.0533 30.0436 20.7667 30.0569 20.4067C30.0836 20.0333 30.0969 19.6133 30.0969 19.1467V10.5067C30.0969 9.94666 30.1169 9.46666 30.1569 9.06666C29.9169 9.08 29.6769 9.09333 29.4369 9.10666C29.1969 9.12 28.9569 9.13333 28.7169 9.14666V8.26666H33.2169V8.92666C32.7236 8.94 32.3769 9.05333 32.1769 9.26666C31.9903 9.48 31.8836 9.76666 31.8569 10.1267C31.8436 10.4867 31.8369 10.9067 31.8369 11.3867V14.6667H33.3369L35.8369 10.7267C36.0103 10.46 36.2236 10.1667 36.4769 9.84666C36.7303 9.52666 36.9903 9.26 37.2569 9.04666C37.0569 9.06 36.8503 9.06666 36.6369 9.06666C36.4369 9.06666 36.2369 9.07333 36.0369 9.08666V8.26666H40.3369V8.92666C39.7769 8.96666 39.2769 9.06 38.8369 9.20666C38.3969 9.35333 37.9769 9.61333 37.5769 9.98666C37.1769 10.3467 36.7503 10.8933 36.2969 11.6267L34.3369 14.7467C34.7236 14.9733 35.0369 15.24 35.2769 15.5467C35.5169 15.84 35.7569 16.14 35.9969 16.4467L38.2369 19.4267C38.7436 20.0933 39.1569 20.5867 39.4769 20.9067C39.8103 21.2133 40.1036 21.4067 40.3569 21.4867C40.6236 21.5667 40.8969 21.6067 41.1769 21.6067V22.2667H38.7369C38.5369 22.2667 38.2436 22.0667 37.8569 21.6667C37.4836 21.2667 37.1036 20.8133 36.7169 20.3067L34.3169 17.0667C34.0636 16.7333 33.8103 16.42 33.5569 16.1267C33.3036 15.82 33.0569 15.5933 32.8169 15.4467L31.8369 15.4667V19.8867C31.8369 20.5933 31.8169 21.12 31.7769 21.4667C32.0169 21.4533 32.2569 21.44 32.4969 21.4267C32.7369 21.4133 32.9769 21.4 33.2169 21.3867V22.2667H28.7169Z" fill="black"/>
</svg>
