<svg width="37" height="37" viewBox="0 0 37 37" fill="none" xmlns="http://www.w3.org/2000/svg">
<path d="M9.25 3.08333C11.2168 3.08279 13.1464 3.61977 14.8302 4.63625C16.514 5.65273 17.888 7.11004 18.8037 8.85071C19.7288 7.54349 20.9541 6.47743 22.3768 5.7421C23.7994 5.00678 25.3777 4.62368 26.9792 4.625H32.375V8.47917C32.375 11.1369 31.3192 13.6857 29.44 15.565C27.5607 17.4442 25.0119 18.5 22.3542 18.5H20.0417V20.0417H27.75V30.8333C27.75 31.6511 27.4251 32.4353 26.8469 33.0136C26.2687 33.5918 25.4844 33.9167 24.6667 33.9167H12.3333C11.5156 33.9167 10.7313 33.5918 10.1531 33.0136C9.57485 32.4353 9.25 31.6511 9.25 30.8333V20.0417H16.9583V16.9583H13.875C11.0129 16.9583 8.26797 15.8214 6.24414 13.7975C4.22031 11.7737 3.08333 9.02879 3.08333 6.16667V3.08333H9.25ZM24.6667 23.125H12.3333V30.8333H24.6667V23.125ZM29.2917 7.70833H26.9792C25.1392 7.70833 23.3746 8.43925 22.0736 9.74028C20.7726 11.0413 20.0417 12.8059 20.0417 14.6458V15.4167H22.3542C23.2652 15.4167 24.1673 15.2372 25.009 14.8886C25.8507 14.5399 26.6155 14.0289 27.2597 13.3847C27.9039 12.7405 28.4149 11.9757 28.7636 11.134C29.1122 10.2923 29.2917 9.39021 29.2917 8.47917V7.70833ZM9.25 6.16667H6.16667C6.16667 8.21104 6.97879 10.1717 8.42438 11.6173C9.86998 13.0629 11.8306 13.875 13.875 13.875H16.9583C16.9583 11.8306 16.1462 9.86998 14.7006 8.42438C13.255 6.97879 11.2944 6.16667 9.25 6.16667V6.16667Z" fill="black"/>
</svg>
