<svg width="140" height="27" viewBox="0 0 140 27" fill="none" xmlns="http://www.w3.org/2000/svg">
<path d="M13.8572 16.955C14.1465 16.955 14.3472 16.885 14.4592 16.745C14.5712 16.5957 14.6365 16.395 14.6552 16.143C14.6739 15.8817 14.6832 15.583 14.6832 15.247V12.055C14.6832 11.9057 14.6832 11.7563 14.6832 11.607C14.6925 11.4577 14.7112 11.3037 14.7392 11.145C14.5712 11.1543 14.4032 11.1637 14.2352 11.173C14.0765 11.173 13.9132 11.1777 13.7452 11.187V10.613H14.1792C14.5805 10.613 14.8559 10.5757 15.0052 10.501C15.1639 10.417 15.2945 10.3283 15.3972 10.235H15.8032C15.8219 10.3843 15.8359 10.571 15.8452 10.795C15.8545 11.0097 15.8639 11.285 15.8732 11.621C16.0132 11.3877 16.2045 11.159 16.4472 10.935C16.6899 10.711 16.9605 10.5243 17.2592 10.375C17.5672 10.2257 17.8892 10.151 18.2252 10.151C18.4865 10.151 18.7152 10.221 18.9112 10.361C19.1072 10.501 19.2052 10.725 19.2052 11.033C19.2052 11.1543 19.1492 11.299 19.0372 11.467C18.9345 11.635 18.7572 11.7143 18.5052 11.705C18.2999 11.6957 18.1365 11.6163 18.0152 11.467C17.8939 11.3083 17.8472 11.1263 17.8752 10.921C17.5205 10.9023 17.1612 11.0377 16.7972 11.327C16.4332 11.6163 16.1299 11.9897 15.8872 12.447L15.9012 15.891C15.9012 16.0777 15.8965 16.2457 15.8872 16.395C15.8872 16.535 15.8732 16.6843 15.8452 16.843C15.9945 16.8337 16.1392 16.829 16.2792 16.829C16.4285 16.8197 16.5779 16.8103 16.7272 16.801V17.375H13.8572V16.955ZM23.2061 17.599C22.5621 17.599 21.9788 17.4497 21.4561 17.151C20.9428 16.843 20.5368 16.4137 20.2381 15.863C19.9395 15.303 19.7901 14.645 19.7901 13.889C19.7901 13.2357 19.9348 12.6243 20.2241 12.055C20.5228 11.4857 20.9381 11.0283 21.4701 10.683C22.0021 10.3283 22.6181 10.151 23.3181 10.151C23.8408 10.151 24.3168 10.263 24.7461 10.487C25.1755 10.711 25.5161 11.0517 25.7681 11.509C26.0295 11.9663 26.1601 12.545 26.1601 13.245L21.2321 13.329C21.2228 14.4023 21.4001 15.2657 21.7641 15.919C22.1281 16.563 22.7208 16.885 23.5421 16.885C23.8315 16.885 24.1255 16.8337 24.4241 16.731C24.7321 16.6283 25.0168 16.4883 25.2781 16.311C25.5395 16.1337 25.7495 15.9377 25.9081 15.723L26.2441 16.003C25.9921 16.395 25.6888 16.7077 25.3341 16.941C24.9795 17.1743 24.6155 17.3423 24.2421 17.445C23.8688 17.5477 23.5235 17.599 23.2061 17.599ZM21.2741 12.741H24.8441C24.8441 12.405 24.7928 12.083 24.6901 11.775C24.5968 11.4577 24.4381 11.201 24.2141 11.005C23.9901 10.7997 23.6961 10.697 23.3321 10.697C22.7908 10.697 22.3381 10.8603 21.9741 11.187C21.6195 11.5043 21.3861 12.0223 21.2741 12.741ZM27.406 17.375V16.955C27.6954 16.955 27.896 16.885 28.008 16.745C28.12 16.5957 28.1854 16.395 28.204 16.143C28.2227 15.8817 28.232 15.583 28.232 15.247V12.055C28.232 11.9057 28.232 11.7563 28.232 11.607C28.2414 11.4577 28.26 11.3037 28.288 11.145C28.12 11.1543 27.952 11.1637 27.784 11.173C27.6254 11.1823 27.462 11.1917 27.294 11.201V10.613C27.7047 10.613 28.0127 10.5943 28.218 10.557C28.4327 10.5197 28.5914 10.473 28.694 10.417C28.7967 10.361 28.8807 10.3003 28.946 10.235H29.352C29.3707 10.3283 29.38 10.4357 29.38 10.557C29.3894 10.6783 29.3987 10.8183 29.408 10.977C29.688 10.7343 30.01 10.5383 30.374 10.389C30.738 10.2303 31.102 10.151 31.466 10.151C31.9327 10.151 32.3247 10.235 32.642 10.403C32.9594 10.571 33.2067 10.7997 33.384 11.089C33.7014 10.8277 34.0654 10.6083 34.476 10.431C34.896 10.2443 35.3067 10.151 35.708 10.151C36.52 10.151 37.1174 10.3983 37.5 10.893C37.8827 11.3783 38.0647 12.1763 38.046 13.287L38.032 15.891C38.032 16.0777 38.0274 16.2457 38.018 16.395C38.018 16.535 38.004 16.6843 37.976 16.843C38.1254 16.8337 38.27 16.829 38.41 16.829C38.5594 16.8197 38.7087 16.8103 38.858 16.801V17.375H36.002V16.955C36.2914 16.955 36.492 16.885 36.604 16.745C36.716 16.5957 36.7814 16.395 36.8 16.143C36.8187 15.8817 36.828 15.583 36.828 15.247V13.287C36.828 12.4843 36.6974 11.8823 36.436 11.481C36.184 11.0797 35.7827 10.8837 35.232 10.893C34.9427 10.893 34.6534 10.9583 34.364 11.089C34.0747 11.2197 33.8227 11.383 33.608 11.579C33.6547 11.7283 33.6874 11.8917 33.706 12.069C33.734 12.237 33.748 12.4143 33.748 12.601C33.7387 13.1423 33.734 13.6883 33.734 14.239C33.734 14.7897 33.7294 15.3403 33.72 15.891C33.72 16.0777 33.7154 16.2457 33.706 16.395C33.706 16.535 33.692 16.6843 33.664 16.843C33.8134 16.8337 33.958 16.829 34.098 16.829C34.2474 16.8197 34.3967 16.8103 34.546 16.801V17.375H31.69V16.955C31.9794 16.955 32.1754 16.885 32.278 16.745C32.39 16.5957 32.4554 16.395 32.474 16.143C32.502 15.8817 32.516 15.583 32.516 15.247L32.53 13.287C32.5394 12.4843 32.4227 11.8777 32.18 11.467C31.9374 11.0563 31.5407 10.8557 30.99 10.865C30.7007 10.865 30.416 10.9303 30.136 11.061C29.856 11.1823 29.618 11.341 29.422 11.537C29.422 11.649 29.422 11.7703 29.422 11.901C29.4314 12.0223 29.436 12.153 29.436 12.293V15.891C29.436 16.0777 29.4314 16.2457 29.422 16.395C29.422 16.535 29.408 16.6843 29.38 16.843C29.5294 16.8337 29.674 16.829 29.814 16.829C29.9634 16.8197 30.1127 16.8103 30.262 16.801V17.375H27.406ZM43.3878 17.599C42.7345 17.599 42.1418 17.4497 41.6098 17.151C41.0778 16.843 40.6531 16.423 40.3358 15.891C40.0278 15.3497 39.8738 14.7337 39.8738 14.043C39.8738 13.3057 40.0278 12.643 40.3358 12.055C40.6438 11.467 41.0638 11.005 41.5958 10.669C42.1278 10.3237 42.7251 10.151 43.3878 10.151C44.0411 10.151 44.6338 10.3097 45.1658 10.627C45.6978 10.935 46.1225 11.355 46.4398 11.887C46.7571 12.419 46.9158 13.0257 46.9158 13.707C46.9158 14.4257 46.7571 15.0837 46.4398 15.681C46.1318 16.269 45.7118 16.7357 45.1798 17.081C44.6478 17.4263 44.0505 17.599 43.3878 17.599ZM43.4998 17.039C43.9945 17.039 44.3865 16.899 44.6758 16.619C44.9651 16.339 45.1705 15.975 45.2918 15.527C45.4225 15.079 45.4878 14.6077 45.4878 14.113C45.4878 13.693 45.4458 13.2823 45.3618 12.881C45.2871 12.4703 45.1658 12.1017 44.9978 11.775C44.8298 11.439 44.6105 11.173 44.3398 10.977C44.0785 10.781 43.7611 10.683 43.3878 10.683C42.9025 10.683 42.5058 10.823 42.1978 11.103C41.8898 11.383 41.6611 11.747 41.5118 12.195C41.3718 12.643 41.3018 13.1237 41.3018 13.637C41.3018 14.2157 41.3811 14.7663 41.5398 15.289C41.6985 15.8023 41.9411 16.2223 42.2678 16.549C42.5945 16.8757 43.0051 17.039 43.4998 17.039ZM50.6969 17.417L48.6949 12.853C48.4616 12.321 48.3076 11.9057 48.2329 11.607C48.1582 11.299 48.1162 11.0657 48.1069 10.907L47.5049 10.949V10.375H50.0809V10.795C49.8009 10.795 49.6189 10.8697 49.5349 11.019C49.4602 11.159 49.4509 11.3503 49.5069 11.593C49.5629 11.8263 49.6469 12.0783 49.7589 12.349L50.8369 14.813C50.9116 14.9717 50.9816 15.1397 51.0469 15.317C51.1216 15.485 51.1916 15.6623 51.2569 15.849H51.2709C51.3176 15.709 51.3689 15.5597 51.4249 15.401C51.4902 15.2423 51.5462 15.0883 51.5929 14.939L52.7129 11.873C52.7876 11.649 52.8669 11.453 52.9509 11.285C53.0349 11.117 53.0956 10.991 53.1329 10.907L52.2369 10.949V10.375H54.4489V10.795C54.1409 10.795 53.8982 10.9537 53.7209 11.271C53.5436 11.579 53.3336 12.0503 53.0909 12.685L51.2569 17.417H50.6969ZM58.4249 17.599C57.7809 17.599 57.1976 17.4497 56.6749 17.151C56.1616 16.843 55.7556 16.4137 55.4569 15.863C55.1582 15.303 55.0089 14.645 55.0089 13.889C55.0089 13.2357 55.1536 12.6243 55.4429 12.055C55.7416 11.4857 56.1569 11.0283 56.6889 10.683C57.2209 10.3283 57.8369 10.151 58.5369 10.151C59.0596 10.151 59.5356 10.263 59.9649 10.487C60.3942 10.711 60.7349 11.0517 60.9869 11.509C61.2482 11.9663 61.3789 12.545 61.3789 13.245L56.4509 13.329C56.4416 14.4023 56.6189 15.2657 56.9829 15.919C57.3469 16.563 57.9396 16.885 58.7609 16.885C59.0502 16.885 59.3442 16.8337 59.6429 16.731C59.9509 16.6283 60.2356 16.4883 60.4969 16.311C60.7582 16.1337 60.9682 15.9377 61.1269 15.723L61.4629 16.003C61.2109 16.395 60.9076 16.7077 60.5529 16.941C60.1982 17.1743 59.8342 17.3423 59.4609 17.445C59.0876 17.5477 58.7422 17.599 58.4249 17.599ZM56.4929 12.741H60.0629C60.0629 12.405 60.0116 12.083 59.9089 11.775C59.8156 11.4577 59.6569 11.201 59.4329 11.005C59.2089 10.7997 58.9149 10.697 58.5509 10.697C58.0096 10.697 57.5569 10.8603 57.1929 11.187C56.8382 11.5043 56.6049 12.0223 56.4929 12.741ZM68.9345 17.599C68.7199 17.599 68.5005 17.5663 68.2765 17.501C68.0525 17.445 67.8425 17.3283 67.6465 17.151C67.4599 16.9737 67.3105 16.717 67.1985 16.381C67.0865 16.0357 67.0305 15.583 67.0305 15.023L67.0585 10.963L65.9805 10.977V10.375C66.2232 10.3657 66.4705 10.277 66.7225 10.109C66.9745 9.93167 67.1985 9.69367 67.3945 9.395C67.5999 9.09633 67.7399 8.76967 67.8145 8.415H68.2905V10.375H70.6425V10.921L68.2905 10.949L68.2625 14.841C68.2625 15.4757 68.3419 15.961 68.5005 16.297C68.6685 16.633 68.9439 16.801 69.3265 16.801C69.5879 16.801 69.8305 16.7263 70.0545 16.577C70.2879 16.4277 70.4932 16.2223 70.6705 15.961L71.0485 16.269C70.7779 16.6797 70.5072 16.9783 70.2365 17.165C69.9752 17.3517 69.7325 17.4683 69.5085 17.515C69.2845 17.571 69.0932 17.599 68.9345 17.599ZM76.2106 16.955C76.4999 16.955 76.7006 16.885 76.8126 16.745C76.9246 16.5957 76.9899 16.395 77.0086 16.143C77.0273 15.8817 77.0366 15.583 77.0366 15.247V13.287C77.0366 12.4843 76.9059 11.8823 76.6446 11.481C76.3926 11.0797 75.9913 10.8837 75.4406 10.893C75.0953 10.9023 74.7546 10.9863 74.4186 11.145C74.0919 11.3037 73.8259 11.509 73.6206 11.761V15.891C73.6206 16.0777 73.6159 16.2457 73.6066 16.395C73.5973 16.535 73.5786 16.6843 73.5506 16.843C73.6999 16.8337 73.8446 16.829 73.9846 16.829C74.1339 16.8197 74.2833 16.8103 74.4326 16.801V17.375H71.5766V16.955C71.8659 16.955 72.0666 16.885 72.1786 16.745C72.2906 16.5957 72.3559 16.395 72.3746 16.143C72.4026 15.8817 72.4166 15.583 72.4166 15.247V8.625C72.4166 8.47567 72.4166 8.33567 72.4166 8.205C72.4259 8.065 72.4399 7.90167 72.4586 7.715C72.2906 7.72433 72.1226 7.73367 71.9546 7.743C71.7959 7.75233 71.6326 7.76167 71.4646 7.771V7.183C71.8753 7.183 72.1926 7.16433 72.4166 7.127C72.6499 7.08967 72.8226 7.043 72.9346 6.987C73.0559 6.931 73.1493 6.87033 73.2146 6.805H73.6206V11.075C73.9286 10.8137 74.2879 10.5943 74.6986 10.417C75.1093 10.2397 75.5153 10.151 75.9166 10.151C76.7286 10.151 77.3119 10.4077 77.6666 10.921C78.0306 11.425 78.2173 12.2137 78.2266 13.287L78.2406 15.891C78.2406 16.0777 78.2359 16.2457 78.2266 16.395C78.2266 16.535 78.2126 16.6843 78.1846 16.843C78.3339 16.8337 78.4786 16.829 78.6186 16.829C78.7679 16.8197 78.9173 16.8103 79.0666 16.801V17.375H76.2106V16.955ZM80.0974 16.955C80.3868 16.955 80.5874 16.885 80.6994 16.745C80.8114 16.5957 80.8768 16.395 80.8954 16.143C80.9141 15.8817 80.9234 15.583 80.9234 15.247V12.055C80.9234 11.9057 80.9281 11.7657 80.9374 11.635C80.9468 11.495 80.9608 11.3317 80.9794 11.145C80.8114 11.1543 80.6434 11.1637 80.4754 11.173C80.3168 11.1823 80.1534 11.1917 79.9854 11.201V10.613C80.3961 10.613 80.7134 10.5943 80.9374 10.557C81.1614 10.5197 81.3294 10.473 81.4414 10.417C81.5628 10.361 81.6561 10.3003 81.7214 10.235H82.1274V15.891C82.1274 16.0777 82.1228 16.2457 82.1134 16.395C82.1134 16.535 82.0994 16.6843 82.0714 16.843C82.2208 16.8337 82.3654 16.829 82.5054 16.829C82.6548 16.8197 82.8041 16.8103 82.9534 16.801V17.375H80.0974V16.955ZM81.4554 8.849C81.2594 8.849 81.0868 8.76967 80.9374 8.611C80.7881 8.45233 80.7134 8.25633 80.7134 8.023C80.7134 7.78967 80.7881 7.59367 80.9374 7.435C81.0961 7.267 81.2734 7.183 81.4694 7.183C81.6841 7.183 81.8614 7.267 82.0014 7.435C82.1508 7.59367 82.2254 7.78967 82.2254 8.023C82.2254 8.25633 82.1461 8.45233 81.9874 8.611C81.8381 8.76967 81.6608 8.849 81.4554 8.849ZM86.9049 17.599C86.4383 17.599 86.0229 17.5337 85.6589 17.403C85.2949 17.2817 84.9963 17.1417 84.7629 16.983L84.8189 17.473H84.2309L84.1469 15.065H84.5809C84.5996 15.4477 84.7069 15.793 84.9029 16.101C85.0989 16.3997 85.3509 16.633 85.6589 16.801C85.9669 16.969 86.2983 17.053 86.6529 17.053C86.8956 17.053 87.1336 17.0157 87.3669 16.941C87.6003 16.857 87.7963 16.7357 87.9549 16.577C88.1136 16.409 88.1929 16.199 88.1929 15.947C88.1929 15.6857 88.1136 15.471 87.9549 15.303C87.8056 15.1257 87.6049 14.9717 87.3529 14.841C87.1009 14.7103 86.8303 14.589 86.5409 14.477C86.1676 14.3277 85.7943 14.169 85.4209 14.001C85.0569 13.8237 84.7536 13.595 84.5109 13.315C84.2683 13.0257 84.1469 12.6477 84.1469 12.181C84.1469 11.985 84.1843 11.7703 84.2589 11.537C84.3336 11.3037 84.4596 11.0843 84.6369 10.879C84.8143 10.6643 85.0569 10.4917 85.3649 10.361C85.6729 10.221 86.0649 10.151 86.5409 10.151C86.7929 10.151 87.0729 10.193 87.3809 10.277C87.6889 10.361 87.9876 10.5197 88.2769 10.753L88.2489 10.221H88.8369V12.671H88.3889C88.3703 12.3443 88.2956 12.0317 88.1649 11.733C88.0343 11.425 87.8429 11.173 87.5909 10.977C87.3389 10.7717 87.0123 10.669 86.6109 10.669C86.1816 10.669 85.8456 10.7763 85.6029 10.991C85.3603 11.2057 85.2389 11.453 85.2389 11.733C85.2389 12.0223 85.3276 12.265 85.5049 12.461C85.6916 12.6477 85.9296 12.811 86.2189 12.951C86.5083 13.091 86.8163 13.2263 87.1429 13.357C87.4976 13.5063 87.8429 13.6697 88.1789 13.847C88.5149 14.0243 88.7903 14.2483 89.0049 14.519C89.2196 14.7803 89.3269 15.121 89.3269 15.541C89.3269 16.0077 89.2056 16.395 88.9629 16.703C88.7296 17.011 88.4263 17.235 88.0529 17.375C87.6889 17.5243 87.3063 17.599 86.9049 17.599ZM94.0671 20.945V20.525C94.3565 20.525 94.5571 20.4503 94.6691 20.301C94.7811 20.161 94.8465 19.9603 94.8651 19.699C94.8838 19.447 94.8931 19.153 94.8931 18.817L94.9211 12.055C94.9211 11.9057 94.9211 11.7563 94.9211 11.607C94.9305 11.4577 94.9491 11.3037 94.9771 11.145C94.8091 11.1543 94.6411 11.1637 94.4731 11.173C94.3145 11.1823 94.1511 11.1917 93.9831 11.201V10.613C94.3938 10.613 94.7018 10.5943 94.9071 10.557C95.1218 10.5197 95.2758 10.473 95.3691 10.417C95.4718 10.361 95.5558 10.3003 95.6211 10.235H96.0411C96.0505 10.3283 96.0598 10.4403 96.0691 10.571C96.0785 10.6923 96.0878 10.8323 96.0971 10.991C96.3771 10.739 96.7085 10.5383 97.0911 10.389C97.4831 10.2303 97.8751 10.151 98.2671 10.151C98.8085 10.151 99.3125 10.291 99.7791 10.571C100.246 10.851 100.624 11.2523 100.913 11.775C101.202 12.2883 101.347 12.9043 101.347 13.623C101.347 14.4163 101.179 15.1117 100.843 15.709C100.516 16.3063 100.082 16.773 99.5411 17.109C98.9998 17.4357 98.4118 17.599 97.7771 17.599C97.1331 17.599 96.5731 17.445 96.0971 17.137V19.461C96.0971 19.6477 96.0925 19.811 96.0831 19.951C96.0831 20.1003 96.0691 20.2543 96.0411 20.413C96.1905 20.4037 96.3351 20.3943 96.4751 20.385C96.6245 20.385 96.7738 20.3803 96.9231 20.371V20.945H94.0671ZM97.7491 17.039C98.1971 17.039 98.5798 16.9037 98.8971 16.633C99.2238 16.353 99.4711 15.975 99.6391 15.499C99.8165 15.0137 99.9051 14.463 99.9051 13.847C99.9051 13.343 99.8305 12.8623 99.6811 12.405C99.5411 11.9383 99.3125 11.5603 98.9951 11.271C98.6871 10.9817 98.2765 10.837 97.7631 10.837C97.4458 10.837 97.1378 10.9163 96.8391 11.075C96.5498 11.2243 96.3071 11.4063 96.1111 11.621C96.1111 11.6583 96.1111 11.7143 96.1111 11.789C96.1205 11.8543 96.1251 11.9757 96.1251 12.153C96.1251 12.321 96.1251 12.5777 96.1251 12.923C96.1251 13.259 96.1205 13.7163 96.1111 14.295C96.1111 14.8737 96.1111 15.6063 96.1111 16.493C96.5871 16.857 97.1331 17.039 97.7491 17.039ZM102.407 16.955C102.696 16.955 102.897 16.885 103.009 16.745C103.121 16.5957 103.186 16.395 103.205 16.143C103.223 15.8817 103.233 15.583 103.233 15.247V8.625C103.233 8.47567 103.233 8.33567 103.233 8.205C103.242 8.065 103.256 7.90167 103.275 7.715C103.107 7.72433 102.939 7.73367 102.771 7.743C102.612 7.75233 102.449 7.76167 102.281 7.771V7.183C102.691 7.183 103.009 7.16433 103.233 7.127C103.466 7.08967 103.639 7.043 103.751 6.987C103.872 6.931 103.965 6.87033 104.031 6.805H104.437L104.451 15.891C104.451 16.0777 104.446 16.2457 104.437 16.395C104.427 16.535 104.409 16.6843 104.381 16.843C104.53 16.8337 104.675 16.829 104.815 16.829C104.964 16.8197 105.113 16.8103 105.263 16.801V17.375H102.407V16.955ZM110.617 17.375C110.589 17.2163 110.57 17.0763 110.561 16.955C110.552 16.8337 110.538 16.7077 110.519 16.577C110.202 16.8943 109.856 17.1463 109.483 17.333C109.119 17.5103 108.732 17.599 108.321 17.599C107.612 17.599 107.084 17.4403 106.739 17.123C106.394 16.7963 106.221 16.3997 106.221 15.933C106.221 15.5037 106.352 15.135 106.613 14.827C106.884 14.5097 107.229 14.253 107.649 14.057C108.078 13.8517 108.54 13.7023 109.035 13.609C109.539 13.5063 110.024 13.4597 110.491 13.469V12.601C110.491 12.2743 110.463 11.9663 110.407 11.677C110.351 11.3877 110.23 11.1497 110.043 10.963C109.856 10.7763 109.558 10.6783 109.147 10.669C108.876 10.6597 108.596 10.711 108.307 10.823C108.027 10.935 107.822 11.1263 107.691 11.397C107.766 11.4717 107.812 11.5603 107.831 11.663C107.859 11.7563 107.873 11.845 107.873 11.929C107.873 12.041 107.826 12.1717 107.733 12.321C107.64 12.461 107.476 12.5263 107.243 12.517C107.047 12.517 106.898 12.4517 106.795 12.321C106.692 12.181 106.641 12.0177 106.641 11.831C106.641 11.5137 106.758 11.229 106.991 10.977C107.234 10.725 107.565 10.5243 107.985 10.375C108.405 10.2257 108.881 10.151 109.413 10.151C110.197 10.151 110.776 10.361 111.149 10.781C111.522 11.1917 111.704 11.845 111.695 12.741C111.695 13.2637 111.69 13.791 111.681 14.323C111.681 14.8457 111.681 15.3683 111.681 15.891C111.681 16.0403 111.676 16.1897 111.667 16.339C111.658 16.4883 111.644 16.6563 111.625 16.843C111.793 16.8337 111.956 16.8243 112.115 16.815C112.283 16.8057 112.451 16.7963 112.619 16.787V17.375H110.617ZM110.491 13.945C110.174 13.9543 109.838 13.9963 109.483 14.071C109.138 14.1363 108.816 14.239 108.517 14.379C108.228 14.519 107.99 14.7057 107.803 14.939C107.626 15.163 107.542 15.4383 107.551 15.765C107.57 16.1103 107.682 16.3717 107.887 16.549C108.102 16.717 108.354 16.801 108.643 16.801C109.026 16.801 109.357 16.731 109.637 16.591C109.926 16.4417 110.211 16.2363 110.491 15.975C110.482 15.8723 110.477 15.7603 110.477 15.639C110.477 15.5177 110.477 15.3917 110.477 15.261C110.477 15.2143 110.477 15.065 110.477 14.813C110.486 14.561 110.491 14.2717 110.491 13.945ZM113.58 17.375V16.955C113.869 16.955 114.07 16.885 114.182 16.745C114.294 16.5957 114.359 16.395 114.378 16.143C114.397 15.8817 114.406 15.583 114.406 15.247L114.42 12.055C114.42 11.9057 114.42 11.7563 114.42 11.607C114.429 11.4577 114.448 11.3037 114.476 11.145C114.308 11.1543 114.14 11.1637 113.972 11.173C113.813 11.1823 113.65 11.1917 113.482 11.201V10.613C113.893 10.613 114.201 10.5943 114.406 10.557C114.621 10.5197 114.779 10.473 114.882 10.417C114.985 10.361 115.069 10.3003 115.134 10.235H115.54C115.559 10.3377 115.568 10.459 115.568 10.599C115.577 10.7297 115.587 10.893 115.596 11.089C115.895 10.8183 116.249 10.5943 116.66 10.417C117.071 10.2397 117.477 10.151 117.878 10.151C118.69 10.151 119.283 10.4077 119.656 10.921C120.029 11.425 120.216 12.2137 120.216 13.287V15.891C120.216 16.0777 120.211 16.2457 120.202 16.395C120.202 16.535 120.188 16.6843 120.16 16.843C120.309 16.8337 120.454 16.829 120.594 16.829C120.743 16.8197 120.893 16.8103 121.042 16.801V17.375H118.186V16.955C118.475 16.955 118.676 16.885 118.788 16.745C118.9 16.5957 118.965 16.395 118.984 16.143C119.003 15.8817 119.012 15.583 119.012 15.247V13.287C119.003 12.4843 118.867 11.8777 118.606 11.467C118.354 11.0563 117.953 10.8557 117.402 10.865C117.066 10.8743 116.735 10.963 116.408 11.131C116.091 11.299 115.825 11.5137 115.61 11.775C115.619 11.8497 115.624 11.9337 115.624 12.027C115.624 12.1203 115.624 12.2183 115.624 12.321L115.61 15.891C115.61 16.0777 115.605 16.2457 115.596 16.395C115.596 16.535 115.582 16.6843 115.554 16.843C115.703 16.8337 115.848 16.829 115.988 16.829C116.137 16.8197 116.287 16.8103 116.436 16.801V17.375H113.58ZM124.593 17.599C124.378 17.599 124.159 17.5663 123.935 17.501C123.711 17.445 123.501 17.3283 123.305 17.151C123.118 16.9737 122.969 16.717 122.857 16.381C122.745 16.0357 122.689 15.583 122.689 15.023L122.717 10.963L121.639 10.977V10.375C121.881 10.3657 122.129 10.277 122.381 10.109C122.633 9.93167 122.857 9.69367 123.053 9.395C123.258 9.09633 123.398 8.76967 123.473 8.415H123.949V10.375H126.301V10.921L123.949 10.949L123.921 14.841C123.921 15.4757 124 15.961 124.159 16.297C124.327 16.633 124.602 16.801 124.985 16.801C125.246 16.801 125.489 16.7263 125.713 16.577C125.946 16.4277 126.151 16.2223 126.329 15.961L126.707 16.269C126.436 16.6797 126.165 16.9783 125.895 17.165C125.633 17.3517 125.391 17.4683 125.167 17.515C124.943 17.571 124.751 17.599 124.593 17.599Z" fill="#F70D0D"/>
<rect x="0.5" y="0.5" width="139" height="26" stroke="#FE0A0A"/>
</svg>
