<svg width="275" height="70" viewBox="0 0 275 70" fill="none" xmlns="http://www.w3.org/2000/svg">
<g filter="url(#filter0_d)">
<path d="M24.6403 5.96235e-06C53.6403 1.94586e-05 170.64 -1.26343e-05 252.64 5.96235e-06C276.853 1.14535e-05 276.64 61.9999 252.64 62C228.64 62 50.6403 62 24.6403 62C-1.35967 62 -4.35969 -7.53392e-06 24.6403 5.96235e-06Z" fill="#6BBF73"/>
<path d="M24.6403 1.50001H252.64C257.926 1.50001 262.034 4.84717 264.898 10.3773C267.766 15.9164 269.233 23.4111 269.22 30.9974C269.207 38.5834 267.715 46.08 264.839 51.6215C261.966 57.1578 257.869 60.5 252.64 60.5H24.6403C18.8341 60.5 14.1917 57.0658 10.88 51.5412C7.5591 46.0015 5.6977 38.5201 5.51488 30.9637C5.33197 23.4035 6.83333 15.9496 10.0454 10.4433C13.2266 4.9898 18.0321 1.5 24.6403 1.50001Z" stroke="#6BBF73" stroke-width="3"/>
</g>
<path d="M61.2487 41.25L55.5737 27.95C55.2071 27.1 54.9487 26.4167 54.7987 25.9C54.6487 25.3667 54.5487 24.9167 54.4987 24.55C54.2654 24.5667 54.0321 24.575 53.7987 24.575C53.5654 24.575 53.3321 24.5833 53.0987 24.6V23.5H58.8987L58.8737 24.35C58.0404 24.4 57.5404 24.6583 57.3737 25.125C57.2071 25.575 57.2904 26.2167 57.6237 27.05C58.0237 28.0333 58.4071 28.9833 58.7737 29.9C59.1404 30.8167 59.5487 31.8083 59.9987 32.875C60.3987 33.8083 60.7821 34.7083 61.1487 35.575C61.5321 36.425 61.8237 37.1333 62.0237 37.7H62.0737C62.2571 37.1167 62.4404 36.5583 62.6237 36.025C62.8237 35.4917 63.0571 34.8583 63.3237 34.125C63.8237 32.725 64.2404 31.5417 64.5737 30.575C64.9237 29.6083 65.2237 28.7833 65.4737 28.1C65.7237 27.4167 65.9321 26.8333 66.0987 26.35C66.2487 25.9167 66.3821 25.55 66.4987 25.25C66.6154 24.95 66.7237 24.7 66.8237 24.5C66.5071 24.5167 66.1904 24.5333 65.8737 24.55C65.5571 24.5667 65.2321 24.5833 64.8987 24.6V23.5H69.9737V24.325C69.2404 24.3583 68.6737 24.55 68.2737 24.9C67.8904 25.25 67.5404 25.875 67.2237 26.775C67.1904 26.8583 67.1487 26.975 67.0987 27.125C67.0487 27.2583 66.9654 27.4833 66.8487 27.8C66.7321 28.1167 66.5654 28.5833 66.3487 29.2C66.1321 29.8 65.8321 30.6167 65.4487 31.65C65.0821 32.6833 64.6071 33.9833 64.0237 35.55C63.4571 37.1167 62.7654 39.0167 61.9487 41.25H61.2487ZM70.2655 40.25C70.7822 40.25 71.1405 40.125 71.3405 39.875C71.5405 39.6083 71.6572 39.25 71.6905 38.8C71.7239 38.3333 71.7405 37.8 71.7405 37.2V31.5C71.7405 31.2333 71.7489 30.9833 71.7655 30.75C71.7822 30.5 71.8072 30.2083 71.8405 29.875C71.5405 29.8917 71.2405 29.9083 70.9405 29.925C70.6572 29.9417 70.3655 29.9583 70.0655 29.975V28.925C70.7989 28.925 71.3655 28.8917 71.7655 28.825C72.1655 28.7583 72.4655 28.675 72.6655 28.575C72.8822 28.475 73.0489 28.3667 73.1655 28.25H73.8905V38.35C73.8905 38.6833 73.8822 38.9833 73.8655 39.25C73.8655 39.5 73.8405 39.7667 73.7905 40.05C74.0572 40.0333 74.3155 40.025 74.5655 40.025C74.8322 40.0083 75.0989 39.9917 75.3655 39.975V41H70.2655V40.25ZM72.6905 25.775C72.3405 25.775 72.0322 25.6333 71.7655 25.35C71.4989 25.0667 71.3655 24.7167 71.3655 24.3C71.3655 23.8833 71.4989 23.5333 71.7655 23.25C72.0489 22.95 72.3655 22.8 72.7155 22.8C73.0989 22.8 73.4155 22.95 73.6655 23.25C73.9322 23.5333 74.0655 23.8833 74.0655 24.3C74.0655 24.7167 73.9239 25.0667 73.6405 25.35C73.3739 25.6333 73.0572 25.775 72.6905 25.775ZM83.3468 41.4C82.1968 41.4 81.1551 41.1333 80.2218 40.6C79.3051 40.05 78.5801 39.2833 78.0468 38.3C77.5134 37.3 77.2468 36.125 77.2468 34.775C77.2468 33.6083 77.5051 32.5167 78.0218 31.5C78.5551 30.4833 79.2968 29.6667 80.2468 29.05C81.1968 28.4167 82.2968 28.1 83.5468 28.1C84.4801 28.1 85.3301 28.3 86.0968 28.7C86.8634 29.1 87.4718 29.7083 87.9218 30.525C88.3884 31.3417 88.6218 32.375 88.6218 33.625L79.8218 33.775C79.8051 35.6917 80.1218 37.2333 80.7718 38.4C81.4218 39.55 82.4801 40.125 83.9468 40.125C84.4634 40.125 84.9884 40.0333 85.5218 39.85C86.0718 39.6667 86.5801 39.4167 87.0468 39.1C87.5134 38.7833 87.8884 38.4333 88.1718 38.05L88.7718 38.55C88.3218 39.25 87.7801 39.8083 87.1468 40.225C86.5134 40.6417 85.8634 40.9417 85.1968 41.125C84.5301 41.3083 83.9134 41.4 83.3468 41.4ZM79.8968 32.725H86.2718C86.2718 32.125 86.1801 31.55 85.9968 31C85.8301 30.4333 85.5468 29.975 85.1468 29.625C84.7468 29.2583 84.2218 29.075 83.5718 29.075C82.6051 29.075 81.7968 29.3667 81.1468 29.95C80.5134 30.5167 80.0968 31.4417 79.8968 32.725ZM95.0489 41.075L91.7739 31.475C91.5906 30.9417 91.4489 30.525 91.3489 30.225C91.2489 29.9083 91.1739 29.65 91.1239 29.45L89.7989 29.525V28.5H95.0989V29.25C94.3489 29.2667 93.9323 29.525 93.8489 30.025C93.7823 30.5083 93.8823 31.15 94.1489 31.95L95.2989 35.45C95.4323 35.85 95.5656 36.2583 95.6989 36.675C95.8323 37.075 95.9656 37.475 96.0989 37.875C96.2489 37.425 96.3989 36.975 96.5489 36.525C96.7156 36.0583 96.8739 35.5917 97.0239 35.125L99.2489 28.5H100.274L102.799 35.775C102.932 36.1417 103.066 36.5167 103.199 36.9C103.332 37.2833 103.466 37.6667 103.599 38.05C103.732 37.6833 103.857 37.325 103.974 36.975C104.107 36.6083 104.232 36.2417 104.349 35.875L105.999 31.125C106.116 30.7917 106.232 30.475 106.349 30.175C106.466 29.875 106.599 29.6333 106.749 29.45L105.299 29.525V28.5H109.649V29.25C109.082 29.2833 108.641 29.3833 108.324 29.55C108.007 29.7167 107.766 29.9417 107.599 30.225C107.432 30.4917 107.274 30.825 107.124 31.225L103.524 41.075H102.524L100.149 34.25C99.9989 33.8167 99.8489 33.3833 99.6989 32.95C99.5489 32.5 99.3989 32.0583 99.2489 31.625C99.0989 32.0583 98.9489 32.5 98.7989 32.95C98.6489 33.3833 98.4989 33.8167 98.3489 34.25L95.9989 41.075H95.0489ZM131.436 29.075C131.269 27.5083 130.719 26.2917 129.786 25.425C128.869 24.5583 127.686 24.125 126.236 24.125C125.053 24.125 123.978 24.4583 123.011 25.125C122.044 25.775 121.269 26.7 120.686 27.9C120.119 29.1 119.836 30.5167 119.836 32.15C119.836 33.7167 120.136 35.1 120.736 36.3C121.336 37.5 122.144 38.4333 123.161 39.1C124.178 39.7667 125.303 40.1 126.536 40.1C127.619 40.1 128.686 39.8583 129.736 39.375C130.786 38.875 131.644 38.1583 132.311 37.225L132.961 37.75C132.244 38.7333 131.469 39.4917 130.636 40.025C129.803 40.5583 128.969 40.9167 128.136 41.1C127.319 41.3 126.569 41.4 125.886 41.4C124.636 41.4 123.486 41.175 122.436 40.725C121.403 40.275 120.503 39.65 119.736 38.85C118.986 38.0333 118.403 37.0917 117.986 36.025C117.586 34.9417 117.386 33.775 117.386 32.525C117.386 31.3417 117.561 30.1917 117.911 29.075C118.278 27.9583 118.819 26.95 119.536 26.05C120.253 25.15 121.153 24.4333 122.236 23.9C123.336 23.3667 124.611 23.1 126.061 23.1C127.894 23.1 129.578 23.6083 131.111 24.625L130.986 23.275H132.336V29.075H131.436ZM142.416 41C142.366 40.7167 142.333 40.4667 142.316 40.25C142.3 40.0333 142.275 39.8083 142.241 39.575C141.675 40.1417 141.058 40.5917 140.391 40.925C139.741 41.2417 139.05 41.4 138.316 41.4C137.05 41.4 136.108 41.1167 135.491 40.55C134.875 39.9667 134.566 39.2583 134.566 38.425C134.566 37.6583 134.8 37 135.266 36.45C135.75 35.8833 136.366 35.425 137.116 35.075C137.883 34.7083 138.708 34.4417 139.591 34.275C140.491 34.0917 141.358 34.0083 142.191 34.025V32.475C142.191 31.8917 142.141 31.3417 142.041 30.825C141.941 30.3083 141.725 29.8833 141.391 29.55C141.058 29.2167 140.525 29.0417 139.791 29.025C139.308 29.0083 138.808 29.1 138.291 29.3C137.791 29.5 137.425 29.8417 137.191 30.325C137.325 30.4583 137.408 30.6167 137.441 30.8C137.491 30.9667 137.516 31.125 137.516 31.275C137.516 31.475 137.433 31.7083 137.266 31.975C137.1 32.225 136.808 32.3417 136.391 32.325C136.041 32.325 135.775 32.2083 135.591 31.975C135.408 31.725 135.316 31.4333 135.316 31.1C135.316 30.5333 135.525 30.025 135.941 29.575C136.375 29.125 136.966 28.7667 137.716 28.5C138.466 28.2333 139.316 28.1 140.266 28.1C141.666 28.1 142.7 28.475 143.366 29.225C144.033 29.9583 144.358 31.125 144.341 32.725C144.341 33.6583 144.333 34.6 144.316 35.55C144.316 36.4833 144.316 37.4167 144.316 38.35C144.316 38.6167 144.308 38.8833 144.291 39.15C144.275 39.4167 144.25 39.7167 144.216 40.05C144.516 40.0333 144.808 40.0167 145.091 40C145.391 39.9833 145.691 39.9667 145.991 39.95V41H142.416ZM142.191 34.875C141.625 34.8917 141.025 34.9667 140.391 35.1C139.775 35.2167 139.2 35.4 138.666 35.65C138.15 35.9 137.725 36.2333 137.391 36.65C137.075 37.05 136.925 37.5417 136.941 38.125C136.975 38.7417 137.175 39.2083 137.541 39.525C137.925 39.825 138.375 39.975 138.891 39.975C139.575 39.975 140.166 39.85 140.666 39.6C141.183 39.3333 141.691 38.9667 142.191 38.5C142.175 38.3167 142.166 38.1167 142.166 37.9C142.166 37.6833 142.166 37.4583 142.166 37.225C142.166 37.1417 142.166 36.875 142.166 36.425C142.183 35.975 142.191 35.4583 142.191 34.875ZM147.457 40.25C147.974 40.25 148.332 40.125 148.532 39.875C148.732 39.6083 148.849 39.25 148.882 38.8C148.915 38.3333 148.932 37.8 148.932 37.2V25.375C148.932 25.1083 148.932 24.8583 148.932 24.625C148.949 24.375 148.974 24.0833 149.007 23.75C148.707 23.7667 148.407 23.7833 148.107 23.8C147.824 23.8167 147.532 23.8333 147.232 23.85V22.8C147.965 22.8 148.532 22.7667 148.932 22.7C149.349 22.6333 149.657 22.55 149.857 22.45C150.074 22.35 150.24 22.2417 150.357 22.125H151.082L151.107 38.35C151.107 38.6833 151.099 38.9833 151.082 39.25C151.065 39.5 151.032 39.7667 150.982 40.05C151.249 40.0333 151.507 40.025 151.757 40.025C152.024 40.0083 152.29 39.9917 152.557 39.975V41H147.457V40.25ZM160.568 41.4C159.418 41.4 158.377 41.1333 157.443 40.6C156.527 40.05 155.802 39.2833 155.268 38.3C154.735 37.3 154.468 36.125 154.468 34.775C154.468 33.6083 154.727 32.5167 155.243 31.5C155.777 30.4833 156.518 29.6667 157.468 29.05C158.418 28.4167 159.518 28.1 160.768 28.1C161.702 28.1 162.552 28.3 163.318 28.7C164.085 29.1 164.693 29.7083 165.143 30.525C165.61 31.3417 165.843 32.375 165.843 33.625L157.043 33.775C157.027 35.6917 157.343 37.2333 157.993 38.4C158.643 39.55 159.702 40.125 161.168 40.125C161.685 40.125 162.21 40.0333 162.743 39.85C163.293 39.6667 163.802 39.4167 164.268 39.1C164.735 38.7833 165.11 38.4333 165.393 38.05L165.993 38.55C165.543 39.25 165.002 39.8083 164.368 40.225C163.735 40.6417 163.085 40.9417 162.418 41.125C161.752 41.3083 161.135 41.4 160.568 41.4ZM157.118 32.725H163.493C163.493 32.125 163.402 31.55 163.218 31C163.052 30.4333 162.768 29.975 162.368 29.625C161.968 29.2583 161.443 29.075 160.793 29.075C159.827 29.075 159.018 29.3667 158.368 29.95C157.735 30.5167 157.318 31.4417 157.118 32.725ZM168.068 41V40.25C168.585 40.25 168.943 40.125 169.143 39.875C169.343 39.6083 169.46 39.25 169.493 38.8C169.527 38.3333 169.543 37.8 169.543 37.2L169.568 31.5C169.568 31.2333 169.568 30.9667 169.568 30.7C169.585 30.4333 169.618 30.1583 169.668 29.875C169.368 29.8917 169.068 29.9083 168.768 29.925C168.485 29.9417 168.193 29.9583 167.893 29.975V28.925C168.627 28.925 169.177 28.8917 169.543 28.825C169.927 28.7583 170.21 28.675 170.393 28.575C170.577 28.475 170.727 28.3667 170.843 28.25H171.568C171.602 28.4333 171.618 28.65 171.618 28.9C171.635 29.1333 171.652 29.425 171.668 29.775C172.202 29.2917 172.835 28.8917 173.568 28.575C174.302 28.2583 175.027 28.1 175.743 28.1C177.193 28.1 178.252 28.5583 178.918 29.475C179.585 30.375 179.918 31.7833 179.918 33.7V38.35C179.918 38.6833 179.91 38.9833 179.893 39.25C179.893 39.5 179.868 39.7667 179.818 40.05C180.085 40.0333 180.343 40.025 180.593 40.025C180.86 40.0083 181.127 39.9917 181.393 39.975V41H176.293V40.25C176.81 40.25 177.168 40.125 177.368 39.875C177.568 39.6083 177.685 39.25 177.718 38.8C177.752 38.3333 177.768 37.8 177.768 37.2V33.7C177.752 32.2667 177.51 31.1833 177.043 30.45C176.593 29.7167 175.877 29.3583 174.893 29.375C174.293 29.3917 173.702 29.55 173.118 29.85C172.552 30.15 172.077 30.5333 171.693 31C171.71 31.1333 171.718 31.2833 171.718 31.45C171.718 31.6167 171.718 31.7917 171.718 31.975L171.693 38.35C171.693 38.6833 171.685 38.9833 171.668 39.25C171.668 39.5 171.643 39.7667 171.593 40.05C171.86 40.0333 172.118 40.025 172.368 40.025C172.635 40.0083 172.902 39.9917 173.168 39.975V41H168.068ZM188.604 41.4C187.587 41.4 186.67 41.15 185.854 40.65C185.037 40.1333 184.387 39.4 183.904 38.45C183.437 37.5 183.204 36.3833 183.204 35.1C183.204 33.7333 183.479 32.525 184.029 31.475C184.579 30.425 185.337 29.6 186.304 29C187.287 28.4 188.395 28.1 189.629 28.1C190.179 28.1 190.72 28.175 191.254 28.325C191.804 28.4583 192.237 28.6167 192.554 28.8V25.375C192.554 25.1083 192.554 24.8583 192.554 24.625C192.57 24.375 192.595 24.0833 192.629 23.75C192.329 23.7667 192.029 23.7833 191.729 23.8C191.445 23.8167 191.154 23.8333 190.854 23.85V22.8C191.587 22.8 192.154 22.7667 192.554 22.7C192.954 22.6333 193.254 22.55 193.454 22.45C193.67 22.35 193.837 22.2417 193.954 22.125H194.679V38.35C194.679 38.6167 194.67 38.8833 194.654 39.15C194.637 39.4167 194.612 39.7167 194.579 40.05C194.879 40.0333 195.17 40.0167 195.454 40C195.754 39.9833 196.054 39.9667 196.354 39.95V41H192.779C192.695 40.55 192.637 40.1167 192.604 39.7C192.137 40.2167 191.562 40.6333 190.879 40.95C190.195 41.25 189.437 41.4 188.604 41.4ZM189.504 40.175C190.054 40.175 190.604 40.0167 191.154 39.7C191.72 39.3833 192.187 38.9917 192.554 38.525C192.537 38.325 192.529 38.1167 192.529 37.9C192.529 37.6667 192.529 37.4167 192.529 37.15L192.554 29.95C192.154 29.65 191.712 29.4333 191.229 29.3C190.762 29.15 190.279 29.075 189.779 29.075C188.945 29.075 188.22 29.3167 187.604 29.8C186.987 30.2833 186.52 30.9583 186.204 31.825C185.887 32.6917 185.745 33.7083 185.779 34.875C185.812 35.8917 185.97 36.8 186.254 37.6C186.554 38.4 186.97 39.0333 187.504 39.5C188.054 39.95 188.72 40.175 189.504 40.175ZM205.795 41C205.745 40.7167 205.712 40.4667 205.695 40.25C205.679 40.0333 205.654 39.8083 205.62 39.575C205.054 40.1417 204.437 40.5917 203.77 40.925C203.12 41.2417 202.429 41.4 201.695 41.4C200.429 41.4 199.487 41.1167 198.87 40.55C198.254 39.9667 197.945 39.2583 197.945 38.425C197.945 37.6583 198.179 37 198.645 36.45C199.129 35.8833 199.745 35.425 200.495 35.075C201.262 34.7083 202.087 34.4417 202.97 34.275C203.87 34.0917 204.737 34.0083 205.57 34.025V32.475C205.57 31.8917 205.52 31.3417 205.42 30.825C205.32 30.3083 205.104 29.8833 204.77 29.55C204.437 29.2167 203.904 29.0417 203.17 29.025C202.687 29.0083 202.187 29.1 201.67 29.3C201.17 29.5 200.804 29.8417 200.57 30.325C200.704 30.4583 200.787 30.6167 200.82 30.8C200.87 30.9667 200.895 31.125 200.895 31.275C200.895 31.475 200.812 31.7083 200.645 31.975C200.479 32.225 200.187 32.3417 199.77 32.325C199.42 32.325 199.154 32.2083 198.97 31.975C198.787 31.725 198.695 31.4333 198.695 31.1C198.695 30.5333 198.904 30.025 199.32 29.575C199.754 29.125 200.345 28.7667 201.095 28.5C201.845 28.2333 202.695 28.1 203.645 28.1C205.045 28.1 206.079 28.475 206.745 29.225C207.412 29.9583 207.737 31.125 207.72 32.725C207.72 33.6583 207.712 34.6 207.695 35.55C207.695 36.4833 207.695 37.4167 207.695 38.35C207.695 38.6167 207.687 38.8833 207.67 39.15C207.654 39.4167 207.629 39.7167 207.595 40.05C207.895 40.0333 208.187 40.0167 208.47 40C208.77 39.9833 209.07 39.9667 209.37 39.95V41H205.795ZM205.57 34.875C205.004 34.8917 204.404 34.9667 203.77 35.1C203.154 35.2167 202.579 35.4 202.045 35.65C201.529 35.9 201.104 36.2333 200.77 36.65C200.454 37.05 200.304 37.5417 200.32 38.125C200.354 38.7417 200.554 39.2083 200.92 39.525C201.304 39.825 201.754 39.975 202.27 39.975C202.954 39.975 203.545 39.85 204.045 39.6C204.562 39.3333 205.07 38.9667 205.57 38.5C205.554 38.3167 205.545 38.1167 205.545 37.9C205.545 37.6833 205.545 37.4583 205.545 37.225C205.545 37.1417 205.545 36.875 205.545 36.425C205.562 35.975 205.57 35.4583 205.57 34.875ZM211.086 40.25C211.603 40.25 211.961 40.125 212.161 39.875C212.361 39.6083 212.478 39.25 212.511 38.8C212.544 38.3333 212.561 37.8 212.561 37.2V31.5C212.561 31.2333 212.561 30.9667 212.561 30.7C212.578 30.4333 212.611 30.1583 212.661 29.875C212.361 29.8917 212.061 29.9083 211.761 29.925C211.478 29.925 211.186 29.9333 210.886 29.95V28.925H211.661C212.378 28.925 212.869 28.8583 213.136 28.725C213.419 28.575 213.653 28.4167 213.836 28.25H214.561C214.594 28.5167 214.619 28.85 214.636 29.25C214.653 29.6333 214.669 30.125 214.686 30.725C214.936 30.3083 215.278 29.9 215.711 29.5C216.144 29.1 216.628 28.7667 217.161 28.5C217.711 28.2333 218.286 28.1 218.886 28.1C219.353 28.1 219.761 28.225 220.111 28.475C220.461 28.725 220.636 29.125 220.636 29.675C220.636 29.8917 220.536 30.15 220.336 30.45C220.153 30.75 219.836 30.8917 219.386 30.875C219.019 30.8583 218.728 30.7167 218.511 30.45C218.294 30.1667 218.211 29.8417 218.261 29.475C217.628 29.4417 216.986 29.6833 216.336 30.2C215.686 30.7167 215.144 31.3833 214.711 32.2L214.736 38.35C214.736 38.6833 214.728 38.9833 214.711 39.25C214.711 39.5 214.686 39.7667 214.636 40.05C214.903 40.0333 215.161 40.025 215.411 40.025C215.678 40.0083 215.944 39.9917 216.211 39.975V41H211.086V40.25Z" fill="black"/>
<defs>
<filter id="filter0_d" x="0" y="0" width="274.72" height="70" filterUnits="userSpaceOnUse" color-interpolation-filters="sRGB">
<feFlood flood-opacity="0" result="BackgroundImageFix"/>
<feColorMatrix in="SourceAlpha" type="matrix" values="0 0 0 0 0 0 0 0 0 0 0 0 0 0 0 0 0 0 127 0"/>
<feOffset dy="4"/>
<feGaussianBlur stdDeviation="2"/>
<feColorMatrix type="matrix" values="0 0 0 0 0 0 0 0 0 0 0 0 0 0 0 0 0 0 0.25 0"/>
<feBlend mode="normal" in2="BackgroundImageFix" result="effect1_dropShadow"/>
<feBlend mode="normal" in="SourceGraphic" in2="effect1_dropShadow" result="shape"/>
</filter>
</defs>
</svg>
